<?xml version="1.0" standalone="no"?>
<!DOCTYPE svg PUBLIC "-//W3C//DTD SVG 1.1//EN" "http://www.w3.org/Graphics/SVG/1.1/DTD/svg11.dtd" >
<svg xmlns="http://www.w3.org/2000/svg">
<metadata></metadata>
<defs>
<font id="nexathin" horiz-adv-x="1292" >
<font-face units-per-em="2048" ascent="1501" descent="-547" />
<missing-glyph horiz-adv-x="555" />
<glyph horiz-adv-x="0" />
<glyph horiz-adv-x="0" />
<glyph unicode="&#xd;" horiz-adv-x="720" />
<glyph unicode=" "  horiz-adv-x="555" />
<glyph unicode="&#x09;" horiz-adv-x="555" />
<glyph unicode="&#xa0;" horiz-adv-x="555" />
<glyph unicode="!" horiz-adv-x="464" d="M180 53q0 27 17.5 40t39 13t39 -13t17.5 -40q0 -29 -17.5 -42t-39 -13t-39 13t-17.5 42zM201 268v1166h63v-1166h-63z" />
<glyph unicode="&#x22;" horiz-adv-x="645" d="M162 926v518h57v-518h-57zM428 926v518h55v-518h-55z" />
<glyph unicode="#" horiz-adv-x="1253" d="M78 369v43h174l162 630h-174v39h184l86 353h49l-86 -353h459l88 353h49l-88 -353h197v-39h-205l-160 -630h203v-43h-213l-90 -369h-49l90 369h-459l-90 -369h-49l90 369h-168zM307 416h453l158 622h-451z" />
<glyph unicode="$" horiz-adv-x="1304" d="M90 266l64 35q35 -66 93 -110t128.5 -69.5t144.5 -35.5t139 -10q66 0 150 13t157.5 47t125 91.5t51.5 143.5q0 88 -43 143t-114 91t-161 57.5t-182 39.5q-96 20 -187 43t-163 61t-118 97.5t-50 153.5q-2 100 45 170.5t121 117t164 68t176 25.5v211h51v-211 q70 -2 142.5 -17.5t138 -44t120 -74t88.5 -106.5l-65 -41q-31 59 -83 99t-113.5 64.5t-127 35t-125.5 12.5q-61 0 -142 -15.5t-152.5 -51t-120.5 -93t-45 -143.5q2 -72 38.5 -119t98 -80t145.5 -54.5t183 -39.5q100 -23 199.5 -46.5t176 -65.5t124.5 -110.5t48 -178.5 q0 -100 -51 -170t-129 -113t-171 -63.5t-179 -22.5v-199h-49v201q-76 2 -156 17.5t-153.5 47t-134 81t-97.5 118.5z" />
<glyph unicode="%" horiz-adv-x="1456" d="M82 1139q0 78 34 144.5t102.5 111.5t170.5 45t171 -45t103.5 -111.5t34.5 -144.5t-34.5 -144.5t-103 -111.5t-171.5 -45q-102 0 -170.5 45t-102.5 111.5t-34 144.5zM143 1140.5q0 -63.5 28 -117.5t83 -91t137 -37t137.5 37t82 91t26.5 117.5t-27.5 118t-83 91 t-137.5 36.5t-137 -36.5t-82 -91t-27 -118zM240 0l905 1438h69l-905 -1438h-69zM760 284.5q0 77.5 33.5 144.5t102.5 112t171 45t171 -45t103.5 -112t34.5 -144.5t-34.5 -144t-103.5 -111.5t-171 -45t-171 45t-102.5 111.5t-33.5 144zM821 286.5q0 -63.5 28 -117.5t83 -91 t137 -37t137.5 37t82 91t26.5 117.5t-27.5 118t-83 91t-137.5 36.5t-137.5 -36.5t-82 -91t-26.5 -118z" />
<glyph unicode="&#x26;" horiz-adv-x="1390" d="M133 367q0 72 27.5 131t70.5 105t97.5 78t109.5 50q-57 16 -108 47t-90 75t-61.5 98.5t-22.5 117.5q0 76 29.5 142.5t91 116.5t156.5 80t224 30q86 0 166 -12.5t141.5 -49.5t99.5 -103.5t38 -176.5h-55q0 94 -33 150.5t-87.5 87t-125 39.5t-146.5 9q-219 0 -326.5 -87 t-107.5 -224q2 -88 44 -147.5t106.5 -96t141.5 -52t149 -15.5h593v-58h-135v-337q0 -66 8.5 -124.5t29 -102.5t57 -69.5t96.5 -25.5v-41q-10 -2 -18.5 -3t-18.5 -1q-76 0 -126 54t-69 130q-41 -66 -91 -104.5t-105.5 -60t-113.5 -28.5t-116 -7q-133 0 -231 29.5t-162.5 80.5 t-95.5 122t-31 153zM197 369q0 -72 25.5 -132.5t80.5 -103.5t141 -67.5t207 -24.5q68 0 142.5 13.5t136 49t101.5 99t40 162.5v337h-414q-115 0 -200.5 -29.5t-143 -76.5t-87 -106.5t-29.5 -120.5z" />
<glyph unicode="'" horiz-adv-x="378" d="M162 926v518h55v-518h-55z" />
<glyph unicode="(" horiz-adv-x="641" d="M109 610q0 135 27.5 265.5t82.5 247t138 214t194 168.5l37 -53q-201 -135 -305.5 -346t-108.5 -492q-2 -125 22.5 -246.5t76 -232t129 -208t184.5 -173.5l-33 -53q-111 72 -194 172t-139 219t-83.5 251t-27.5 267z" />
<glyph unicode=")" horiz-adv-x="643" d="M53 1452l37 53q111 -72 194 -169t138 -213.5t82.5 -247t27.5 -265.5t-27.5 -267t-83.5 -251t-139 -219t-194 -172l-33 53q106 76 184 173.5t129.5 208t76 232t22.5 246.5q-4 281 -108.5 492t-305.5 346z" />
<glyph unicode="*" horiz-adv-x="679" d="M141 1272l15 45l153 -47v157h56v-157l167 45l15 -45l-170 -47l104 -140l-45 -32l-100 143l-107 -143l-45 30l113 142z" />
<glyph unicode="+" horiz-adv-x="1024" d="M111 664v67h372v365h60v-365h370v-67h-370v-375h-60v375h-372z" />
<glyph unicode="," horiz-adv-x="407" d="M121 -162l61 152q-16 4 -25.5 15t-9.5 34q0 29 17.5 43t39 14t39 -14t17.5 -43q0 -12 -5 -24.5t-11 -28.5l-64 -148h-59z" />
<glyph unicode="-" horiz-adv-x="1017" d="M156 559v62h706v-62h-706z" />
<glyph unicode="." horiz-adv-x="419" d="M154 45q0 27 17 41t38.5 14t39 -14t17.5 -41q0 -29 -17.5 -43t-39 -14t-38.5 14t-17 43z" />
<glyph unicode="/" horiz-adv-x="974" d="M59 -168l785 1718h74l-787 -1718h-72z" />
<glyph unicode="0" horiz-adv-x="1359" d="M147 532v371q0 135 46.5 237.5t121 171t170 102.5t195.5 34t195.5 -34t170 -102.5t120.5 -171t46 -237.5v-371q0 -135 -46 -237t-120.5 -171t-170 -102.5t-195.5 -33.5t-195.5 33.5t-170 102.5t-121 171t-46.5 237zM217 532q0 -121 40 -210t104.5 -148t147.5 -89t169 -30 q88 0 171 30t148.5 90.5t105.5 149.5t40 207v371q0 119 -40 208t-104.5 149.5t-148.5 90t-170 29.5t-170 -29.5t-148.5 -90t-104.5 -149.5t-40 -208v-371z" />
<glyph unicode="1" horiz-adv-x="792" d="M96 0v63h287v1301l-272 -66v60l344 76v-1371h290v-63h-649z" />
<glyph unicode="2" horiz-adv-x="1363" d="M141 0v311q0 117 49.5 193t128 120t177 61t196.5 17q78 0 164 16.5t157.5 56.5t119 104.5t47.5 162.5q0 102 -48.5 170t-121 108t-159.5 55.5t-163 15.5q-74 0 -156.5 -14.5t-152.5 -52.5t-115 -101.5t-45 -161.5h-69q-2 111 46 186.5t125.5 120.5t174 64.5t192.5 19.5 q98 0 196.5 -21.5t177.5 -70.5t128 -128t51 -192q0 -102 -51 -178t-130 -126t-175.5 -74.5t-186.5 -24.5q-86 0 -173 -13.5t-156.5 -49t-113.5 -98t-44 -163.5v-243h1010v-70h-1080z" />
<glyph unicode="3" horiz-adv-x="1349" d="M125 350h65q0 -106 49.5 -166.5t123 -90.5t159.5 -37t160 -7q129 0 219 27.5t146.5 72t83 102.5t26.5 120q0 61 -32.5 121.5t-94 108.5t-150.5 77t-204 29h-240v59h236q119 0 206 30.5t144 78t85 103.5t28 109q0 61 -29 118t-87 100t-144.5 67.5t-198.5 24.5 q-70 0 -151 -9.5t-150.5 -40t-116.5 -90t-47 -161.5h-64q0 111 50.5 180.5t127 108t169 53t180.5 14.5q133 0 231.5 -29.5t161.5 -81t95 -117t32 -137.5q0 -63 -26.5 -121.5t-71.5 -104.5t-104.5 -77.5t-127.5 -44.5q68 -10 131.5 -42.5t113.5 -81t80 -110t30 -130.5 q0 -74 -31 -144.5t-96.5 -126t-167 -89t-244.5 -33.5q-90 0 -188.5 14t-180.5 54t-134 113t-52 187z" />
<glyph unicode="4" horiz-adv-x="1302" d="M57 403l901 1031h68v-1033h184v-65h-184v-336h-72v336h-888zM139 401h815v926z" />
<glyph unicode="5" horiz-adv-x="1343" d="M133 387h72q0 -102 45 -165.5t115.5 -97.5t154.5 -45t162 -11q131 0 223 28.5t149.5 77.5t84 113.5t26.5 138.5q0 66 -16 133.5t-62.5 121.5t-130.5 89t-219 35h-567v629h987v-60h-926v-510h506q154 0 251 -41t152.5 -103.5t76 -139t20.5 -150.5q0 -80 -30.5 -158.5 t-97.5 -141t-172.5 -100.5t-256.5 -38q-92 0 -188.5 17.5t-176 61.5t-131 120.5t-51.5 195.5z" />
<glyph unicode="6" horiz-adv-x="1402" d="M176 424v649q0 96 46 168t121 119t171 69.5t197 22.5q104 0 198.5 -22.5t166 -65.5t116.5 -107.5t55 -150.5h-71q-6 68 -44 121t-99.5 89t-144.5 54.5t-179 18.5q-86 0 -170 -20.5t-148.5 -59.5t-104.5 -97.5t-40 -136.5v-452q90 127 219 179t270 52q100 0 198.5 -24.5 t176.5 -77t127 -135t49 -197.5q0 -123 -49 -206t-128 -134t-177 -72.5t-199 -21.5q-100 0 -199.5 22.5t-179.5 74.5t-129 136t-49 205zM248 422q-2 -106 44 -177t117.5 -113t157.5 -59.5t166 -17.5t165 16.5t155.5 57.5t117 111.5t46.5 179.5q0 102 -45.5 172t-116 113 t-155.5 62t-165 19t-165 -21.5t-156.5 -65.5t-118.5 -113.5t-47 -163.5z" />
<glyph unicode="7" horiz-adv-x="1153" d="M70 1370v64h1042l14 -78l-813 -1356h-77l821 1370h-987z" />
<glyph unicode="8" horiz-adv-x="1433" d="M131 362q0 82 32 147.5t82 114t113.5 78t128.5 39.5q-66 18 -126 46t-106 69t-73.5 97.5t-27.5 129.5q0 113 55 186.5t139 118t183.5 61.5t185.5 17t185 -16t182 -59t139.5 -117t56.5 -191q0 -76 -28.5 -132t-77 -97t-109.5 -69.5t-127 -47.5q63 -10 129 -40.5t117 -78 t83.5 -112t32.5 -144.5q0 -115 -56 -189.5t-142 -120.5t-188.5 -64.5t-196.5 -18.5t-196.5 19.5t-188.5 64.5t-142.5 120.5t-58.5 188.5zM201 365q0 -102 58 -166t140 -100t170 -49t148 -13q39 0 92 6t110.5 19.5t114 38t100.5 60.5t71.5 86t29.5 118q0 98 -58.5 165.5 t-139.5 107.5t-170 57.5t-150 17.5q-63 0 -151.5 -16.5t-170.5 -56.5t-138 -107.5t-56 -167.5zM219 1081q0 -90 53.5 -148.5t130 -92t162.5 -47t152 -13.5q63 0 150 13.5t164 47t130 92t53 148.5q0 96 -53 159t-130 99.5t-163 51t-151 14.5q-61 0 -147.5 -12.5t-163 -48 t-132 -99t-55.5 -164.5z" />
<glyph unicode="9" horiz-adv-x="1400" d="M115 1018q0 123 49 206t128 134t177 72.5t199 21.5q100 0 199.5 -22.5t179 -74.5t129 -136t49.5 -205v-649q0 -96 -46 -168t-121 -119t-171 -69.5t-197 -22.5q-104 0 -198.5 22.5t-166 65.5t-116.5 107.5t-53 150.5h71q6 -68 43 -121t98.5 -89t144.5 -54.5t179 -18.5 q86 0 169 20.5t149.5 59.5t106.5 97.5t40 135.5v453q-43 -61 -99.5 -104t-121 -72t-134 -42t-136.5 -13q-100 0 -198.5 24.5t-177.5 76.5t-127 135t-48 198zM182 1018q0 -104 46 -174t117 -113t156 -61.5t165 -18.5t164.5 21.5t156.5 65.5t118 113t48 165q0 106 -46 177 t-116.5 113t-156.5 59t-166 17t-166 -16t-157 -57t-117 -112t-46 -179z" />
<glyph unicode=":" horiz-adv-x="440" d="M156 45q0 31 20.5 47.5t44 16.5t44 -16.5t20.5 -47.5q0 -33 -20.5 -49t-44 -16t-44 16t-20.5 49zM156 664q0 33 20.5 48t44 15t44 -15.5t20.5 -47.5q0 -33 -20.5 -49.5t-44 -16.5t-44 16.5t-20.5 49.5z" />
<glyph unicode=";" horiz-adv-x="481" d="M152 -178l69 162q-16 8 -27.5 24.5t-11.5 40.5q0 33 20.5 49.5t45 16.5t45 -15.5t20.5 -48.5q0 -4 -17 -50t-35.5 -95t-31 -80t-4.5 -4h-73zM182 664q0 33 20.5 48t44 15t44 -15t20.5 -48t-20.5 -49.5t-44 -16.5t-44 16.5t-20.5 49.5z" />
<glyph unicode="&#x3c;" horiz-adv-x="724" d="M125 606v92l424 359l37 -43l-412 -361l422 -362l-47 -45z" />
<glyph unicode="=" horiz-adv-x="1128" d="M164 420v69h801v-69h-801zM164 809v72h801v-72h-801z" />
<glyph unicode="&#x3e;" horiz-adv-x="722" d="M129 293l422 360l-412 357l37 47l422 -359v-92l-422 -360z" />
<glyph unicode="?" horiz-adv-x="1198" d="M78 1049q0 117 40 196.5t107.5 127.5t154.5 68.5t181 20.5q96 0 194.5 -18.5t177.5 -65.5t129 -128t52 -206q0 -102 -23.5 -169.5t-62.5 -110.5t-88 -65.5t-98 -32.5q-94 -27 -150.5 -51.5t-87.5 -66.5t-40 -109.5t-9 -180.5h-63q0 104 13 181t51 132.5t106.5 93 t177.5 66.5q45 10 84 28.5t67.5 54.5t46 91.5t17.5 138.5q0 111 -47 180.5t-119 108.5t-160 52.5t-168 13.5q-76 0 -150.5 -14.5t-134 -52.5t-97.5 -106.5t-38 -176.5h-63zM475 53q0 31 18.5 45.5t41 14.5t41 -14.5t18.5 -45.5t-18.5 -45t-41 -14t-41 14t-18.5 45z" />
<glyph unicode="@" horiz-adv-x="1814" d="M119 662q0 156 51 298t150.5 250.5t246 173t338.5 64.5q162 0 308.5 -50t257 -151.5t175 -252t64.5 -353.5q0 -61 -7 -141t-29.5 -150.5t-67.5 -119t-119 -48.5q-59 -2 -106.5 40t-51.5 151q-31 -53 -77 -98.5t-103 -78t-122.5 -51t-133.5 -18.5q-106 0 -199.5 41 t-163 111.5t-109.5 165t-40 198.5q0 119 40 214t108.5 162.5t161.5 103.5t200 36q66 0 130 -15.5t122.5 -48t107.5 -80.5t84 -116l-2 215h62v-739q-2 -72 27.5 -103.5t64.5 -31.5q51 0 83 39.5t48 100t22.5 131.5t6.5 130q0 182 -56.5 321.5t-155 233.5t-234.5 142t-296 48 q-170 0 -304 -56t-226 -154.5t-141.5 -230.5t-49.5 -283q0 -154 49.5 -283t141.5 -223.5t226 -147.5t306 -53q100 0 184.5 23.5t143.5 66.5l35 -55q-80 -51 -171 -76t-190 -25q-195 0 -342 61.5t-247.5 168t-150.5 246t-50 297.5zM446 643q0 -94 36 -176t97.5 -143.5 t142.5 -96t171 -34.5q113 0 197 38.5t139 102t82.5 143.5t27.5 164q0 82 -27.5 163t-84 145.5t-140 103.5t-196.5 39q-90 0 -170 -30t-141.5 -87t-97.5 -141t-36 -191z" />
<glyph unicode="A" horiz-adv-x="1495" d="M66 0l643 1434h77l644 -1434h-78l-166 373h-879l-164 -373h-77zM332 436h827l-411 936z" />
<glyph unicode="B" horiz-adv-x="1415" d="M213 0v1434h565q86 0 170 -21.5t150.5 -68t106.5 -120t40 -175.5q0 -117 -69.5 -203t-184.5 -115q150 -39 227.5 -134t77.5 -235q0 -111 -48 -181t-123.5 -110t-167 -55.5t-179.5 -15.5h-565zM279 63h499q74 0 154 11.5t146.5 43.5t109.5 91t43 156q0 92 -39 156.5 t-100.5 103.5t-138 56t-156.5 17h-518v-635zM279 762h518q63 0 131.5 12t124 44t91.5 88.5t36 144.5q0 94 -38 155.5t-96.5 98t-129 51t-138.5 14.5h-499v-608z" />
<glyph unicode="C" horiz-adv-x="1474" d="M119 709v12q0 137 43 265q45 134 137 237.5t230.5 165t320.5 61.5q141 0 275.5 -52t240.5 -161l-45 -43q-98 98 -220 145t-251 47q-164 0 -289 -54t-209 -146t-126 -215t-42 -260q2 -135 46 -255t128 -210t208 -142.5t284 -52.5q129 0 250 48t219 145l47 -41 q-106 -109 -241.5 -162t-274.5 -53q-176 0 -312.5 58t-229.5 156.5t-141 229.5t-48 277z" />
<glyph unicode="D" horiz-adv-x="1527" d="M213 0v1434h465q182 0 317 -58.5t226.5 -156t137.5 -223.5t50 -263v-13q0 -134 -41 -260q-43 -132 -133 -234.5t-229.5 -164t-327.5 -61.5h-465zM279 63h399q168 0 295 56.5t210 149.5t123 214q37 113 37 232v18q-2 123 -45 238.5t-125.5 204t-205.5 141.5t-289 53h-399 v-1307z" />
<glyph unicode="E" horiz-adv-x="1335" d="M213 0v1434h969v-64h-903v-614h860v-64h-860v-629h933v-63h-999z" />
<glyph unicode="F" horiz-adv-x="1282" d="M213 -2v1436h948v-64h-882v-625h856v-63h-856v-684h-66z" />
<glyph unicode="G" horiz-adv-x="1527" d="M121 717q0 172 55 308t153.5 230.5t233.5 144.5t293 50q141 0 270 -52t240 -161l-43 -47q-98 98 -218 147t-249 49q-168 0 -294 -55t-210 -147t-125 -213t-41 -252q0 -135 44 -257t128 -214t209 -145.5t289 -53.5q61 0 127 13.5t127 38t116.5 59.5t96.5 80v426h-537v63 h603v-518q-109 -111 -244 -168t-289 -57q-178 0 -315.5 58t-230.5 158.5t-141 233.5t-48 281z" />
<glyph unicode="H" horiz-adv-x="1533" d="M213 0v1434h66v-701h976v701h66v-1434h-66v670h-976v-670h-66z" />
<glyph unicode="I" horiz-adv-x="491" d="M213 0v1434h66v-1434h-66z" />
<glyph unicode="J" horiz-adv-x="1359" d="M63 526h60q0 -104 39 -193t105.5 -153.5t155.5 -100.5t189 -36t188.5 30.5t155 91t104.5 149.5t38 208v848h-580v64h645v-912q0 -129 -43 -230.5t-116.5 -171t-174 -105t-217.5 -35.5q-119 0 -219 40.5t-174 113.5t-115 173.5t-41 218.5z" />
<glyph unicode="K" horiz-adv-x="1167" d="M209 2v1432h65v-666l734 666h82v-11l-748 -673l815 -744v-6h-90l-793 725v-723h-65z" />
<glyph unicode="L" horiz-adv-x="1144" d="M213 0v1434h66v-1371h829v-63h-895z" />
<glyph unicode="M" horiz-adv-x="1742" d="M213 0v1434h86l573 -889l566 889h92v-1434h-66v1350l-579 -906h-21l-585 902v-1346h-66z" />
<glyph unicode="N" horiz-adv-x="1515" d="M213 0v1434h6l1024 -1262l-6 332v930h66v-1434l-1031 1268l7 -338v-930h-66z" />
<glyph unicode="O" horiz-adv-x="1673" d="M117 721q0 131 42 262t129 235.5t222.5 169t323.5 64.5q180 0 316 -61.5t226 -164t135 -235.5t45 -274t-46 -274.5t-136 -237t-225 -164.5t-313 -61t-312.5 62t-225.5 165.5t-136 238t-45 275.5zM182 719q0 -127 42 -248t124 -216t204 -153.5t284 -58.5q160 0 282.5 57.5 t205.5 150.5t125 215t42 251q0 133 -42 255t-125 214t-206 147.5t-284 55.5q-164 0 -287 -57.5t-204 -152t-121 -215t-40 -245.5z" />
<glyph unicode="P" horiz-adv-x="1359" d="M213 0v1434h616q150 0 250.5 -69t150.5 -171t50 -221t-49 -221.5t-150.5 -170t-251.5 -67.5h-550v-514h-66zM279 578h550q127 0 213 58t128 146t42 191.5t-42 191.5t-128 146.5t-213 58.5h-550v-792z" />
<glyph unicode="Q" horiz-adv-x="1677" d="M119 731q2 143 50 273.5t140 228.5t226.5 156.5t306.5 58.5q174 0 309 -60.5t226 -162t139 -234.5q45 -128 45 -266v-12q0 -133 -46.5 -264.5t-132.5 -233.5l189 -176l-41 -43l-191 172q-90 -84 -214 -132t-283 -48q-182 0 -318.5 60.5t-226.5 161.5t-135 236 q-43 130 -43 272v13zM184 731q0 -139 41 -263t122 -216t205 -146.5t290 -54.5q162 0 283.5 54.5t203.5 144.5t124 210t42 251v12q0 131 -40 247q-42 122 -125 214t-205.5 146t-282.5 54q-139 0 -259 -48t-209 -135t-139.5 -207t-50.5 -263z" />
<glyph unicode="R" horiz-adv-x="1417" d="M213 0v1434h618q113 0 198 -38t140.5 -99.5t83 -140.5t27.5 -161q0 -90 -27.5 -171t-86 -141t-149.5 -93q-77 -28 -178 -28q-18 0 -38 1l522 -563h-88l-520 563h-436v-563h-66zM279 627h536q203 0 301 101t98 267q0 70 -24.5 137.5t-71.5 121t-119.5 85t-167.5 31.5h-552 v-743z" />
<glyph unicode="S" horiz-adv-x="1337" d="M100 283l58 32q37 -70 97 -120t132 -83.5t148.5 -50t144.5 -16.5q66 0 150.5 11.5t159.5 47t127 99t52 168.5q0 90 -44 146t-116.5 92t-163.5 56.5t-183 39.5q-96 20 -189.5 42.5t-167.5 60.5t-120 97.5t-46 153.5v16q-1 103 47 173q52 74 131.5 119.5t175 63t181.5 17.5 q66 0 134.5 -10.5t134 -34t125.5 -64.5t110 -102l-45 -45q-43 57 -98.5 95t-117 59.5t-125 29.5t-120.5 8q-61 0 -142 -11t-153 -45t-122 -98.5t-50 -170.5q0 -74 38 -121t102.5 -79t150.5 -52.5t184 -38.5q100 -23 200.5 -46.5t178.5 -65.5t127 -109.5t49 -175.5 q0 -121 -56.5 -197t-139.5 -119t-180 -58t-179 -15q-78 0 -162 17t-163 54t-145.5 94.5t-109.5 135.5z" />
<glyph unicode="T" horiz-adv-x="1202" d="M31 1370v64h1140v-64h-538v-1370h-66v1370h-536z" />
<glyph unicode="U" horiz-adv-x="1449" d="M197 526v908h65v-908q0 -125 41 -216t107.5 -149.5t148.5 -86t164 -27.5t165 27.5t149.5 86t108.5 148.5t42 217v908h65v-908q0 -141 -47 -242.5t-122.5 -168t-171 -99t-189.5 -32.5q-96 0 -190.5 32.5t-169 100t-120.5 169t-46 240.5z" />
<glyph unicode="V" horiz-adv-x="1404" d="M74 1434h73l555 -1360l555 1360h72l-588 -1438h-77z" />
<glyph unicode="W" horiz-adv-x="2215" d="M90 1434h70l469 -1381l463 1381h32l459 -1381l475 1381h72l-504 -1438h-92l-240 725l-186 586l-188 -580l-244 -731h-90z" />
<glyph unicode="X" horiz-adv-x="1204" d="M27 0l532 737l-487 697h75l455 -646l457 646h74l-490 -697l535 -737h-82l-254 352l-240 340l-250 -352l-243 -340h-82z" />
<glyph unicode="Y" horiz-adv-x="1331" d="M70 1434h77l519 -803l516 803h78l-562 -865v-569h-65v569z" />
<glyph unicode="Z" horiz-adv-x="1187" d="M39 0v20l969 1352h-893v62h1003v-17l-971 -1354h971v-63h-1079z" />
<glyph unicode="[" horiz-adv-x="606" d="M195 -336v1802h340v-67h-269v-1667h269v-68h-340z" />
<glyph unicode="\" horiz-adv-x="974" d="M59 1550h72l784 -1718h-69z" />
<glyph unicode="]" horiz-adv-x="602" d="M68 -266h270v1667h-270v67h340v-1802h-340v68z" />
<glyph unicode="^" horiz-adv-x="1140" d="M113 809l415 625h88l412 -625l-4 -4h-66l-387 592l-385 -592h-69z" />
<glyph unicode="_" horiz-adv-x="1267" d="M156 -66h956v-63h-956v63z" />
<glyph unicode="`" horiz-adv-x="477" d="M82 1436h80l155 -238v-6h-61z" />
<glyph unicode="a" d="M106 506q0 119 40 215t110 163.5t162 103.5t196 36q70 0 141.5 -18.5t135 -55.5t111 -93t67.5 -132l-12 164v123h61v-1012h-61v129l12 145q-27 -74 -76 -128t-110.5 -90t-130 -52t-134.5 -16q-104 0 -197 35.5t-163 102.5t-111 163t-41 217zM168 506q0 -109 36 -194 t98.5 -144t144 -90t174.5 -31q115 0 197.5 39t136 103.5t79 149.5t25.5 177q0 88 -27.5 170t-84 143.5t-140.5 98.5t-195 37q-92 0 -173 -32t-141 -90.5t-95 -144.5t-35 -192z" />
<glyph unicode="b" d="M174 0v1436h62v-547l-13 -164q20 76 67.5 132t111 93t135 55.5t141.5 18.5q104 0 196.5 -37t162 -105.5t109.5 -163.5t40 -212q0 -121 -41 -217t-110.5 -163t-163 -102.5t-197.5 -35.5q-66 0 -135.5 16t-131 52t-109.5 90.5t-75 127.5l13 -145v-129h-62zM233 516 q0 -92 26 -177t79 -149.5t136 -103.5t198 -39q92 0 174 29.5t144.5 88t98 144.5t35.5 197q0 106 -34.5 192t-95 144.5t-141.5 90.5t-173 32q-111 0 -195 -37t-140 -98.5t-84 -143.5t-28 -170z" />
<glyph unicode="c" horiz-adv-x="1085" d="M106 506q0 117 40 212t110 161.5t164 103.5t205 37q98 0 195.5 -39t172.5 -113l-41 -39q-66 68 -152.5 100t-176.5 32q-92 0 -174 -30t-144.5 -87.5t-99.5 -142.5t-37 -195q0 -109 37 -194t99.5 -143t145 -88t175.5 -30q86 0 171 33t150 98l41 -41q-74 -74 -169 -111.5 t-193 -37.5q-106 0 -200.5 37t-165.5 104.5t-112 161.5t-41 211z" />
<glyph unicode="d" d="M106 506q0 119 40 215t110 163.5t162 103.5t196 36q70 0 141.5 -18.5t135 -55.5t111 -93t67.5 -132l-12 164v543h61v-1432h-61v129l12 145q-27 -74 -76 -128t-110.5 -90t-130 -52t-134.5 -16q-104 0 -197 35.5t-163 102.5t-111 163t-41 217zM168 506q0 -109 36 -194 t98.5 -144t144 -90t174.5 -31q115 0 197.5 39t136 103.5t79 149.5t25.5 177q0 88 -27.5 170t-84 143.5t-140.5 98.5t-195 37q-92 0 -173 -32t-141 -90.5t-95 -144.5t-35 -192z" />
<glyph unicode="e" horiz-adv-x="1206" d="M106 504q0 117 38 212t105.5 163.5t160 106.5t198.5 38q102 0 199.5 -30.5t169.5 -97.5q73 -67 111 -170q28 -76 27 -175q0 -36 -3 -76h-944q8 -109 48 -188.5t100.5 -132t136 -78t157.5 -25.5q53 0 110.5 11.5t110 34t96.5 55t74 73.5l48 -35q-37 -49 -86.5 -86.5 t-107.5 -62.5t-120.5 -37t-124.5 -12q-100 0 -191 33.5t-161 99t-111 161t-41 218.5zM168 532h889v19q0 197 -117 303q-123 111 -332 111q-90 0 -166.5 -29t-135 -84t-95.5 -135t-43 -185z" />
<glyph unicode="f" horiz-adv-x="708" d="M72 950v60h211v108q0 68 12 126.5t43 101.5t84 67.5t137 26.5q53 0 102.5 -16.5t90.5 -51.5l-37 -43q-37 29 -77 40t-81 11q-102 0 -157.5 -55t-55.5 -207v-108h344v-60h-344v-950h-61v950h-211z" />
<glyph unicode="g" horiz-adv-x="1243" d="M109 543q0 123 46 214t119.5 152.5t165.5 92t185 30.5q86 0 174 -25.5t147 -68.5l103 121l45 -33l-105 -123q25 -27 51.5 -58.5t48 -72.5t35 -97.5t13.5 -131.5q0 -66 -20.5 -137.5t-63.5 -136t-107.5 -112.5t-152.5 -67q66 -12 126 -37.5t106 -66.5t73.5 -98.5 t27.5 -133.5q0 -86 -41 -152.5t-109.5 -111.5t-159.5 -68.5t-191 -23.5q-92 0 -180.5 24.5t-156 73.5t-109.5 122t-42 169h60q0 -82 37.5 -143.5t97 -103.5t136.5 -62.5t157 -20.5q82 0 160.5 16.5t141 52.5t100.5 92t38 136q0 86 -42 144.5t-107.5 92.5t-143.5 48t-147 14 q-113 0 -207 32t-163 94.5t-107.5 153.5t-38.5 210zM170 543q0 -111 35 -192t96 -134t144 -78.5t180 -25.5q104 0 187 36.5t141.5 97t90 137.5t31.5 159q0 115 -40 196.5t-103.5 134t-144 76t-162.5 23.5q-80 0 -162 -25.5t-146.5 -78t-105.5 -133t-41 -193.5z" />
<glyph unicode="h" horiz-adv-x="1200" d="M174 0v1012v422h62v-422l-9 -252q31 76 77 126t99.5 80.5t111.5 44t118 13.5q211 0 308 -111.5t97 -316.5v-596h-61v594q0 193 -84 281t-260 92h-10q-73 0 -141 -27q-72 -29 -126.5 -82t-87 -126t-32.5 -157v-575h-62z" />
<glyph unicode="i" horiz-adv-x="409" d="M154 1354q0 27 16 39t37 12q23 0 39 -12.5t16 -38.5q0 -29 -16.5 -42.5t-38.5 -13.5q-20 0 -36.5 13.5t-16.5 42.5zM174 0v1012h62v-1012h-62z" />
<glyph unicode="j" horiz-adv-x="409" d="M-197 -449l21 56q74 -45 162 -45q66 0 103.5 22.5t56 60.5t23.5 87t5 102v1180h62v-1180v-25q0 -52 -6 -100q-9 -59 -35.5 -105t-77.5 -74t-135 -28q-51 0 -92.5 13.5t-86.5 35.5zM150 1366q0 27 16 39t37 12q23 0 39 -12t16 -39q0 -29 -16.5 -42t-38.5 -13 q-20 0 -36.5 13t-16.5 42z" />
<glyph unicode="k" horiz-adv-x="923" d="M174 0v1434h62v-873l509 451h95v-2l-549 -475l608 -531v-4h-82l-581 506v-506h-62z" />
<glyph unicode="l" horiz-adv-x="442" d="M190 0v1434h62v-1434h-62z" />
<glyph unicode="m" horiz-adv-x="1937" d="M174 0v1012h62l-3 -195q23 57 60 97t83 66t97 37t105 11q61 0 122.5 -14.5t114.5 -45t95 -81.5t63 -125q23 70 62.5 121t91 83.5t109.5 48t120 15.5q90 0 166.5 -30.5t133 -85t88.5 -129t32 -164.5v-621h-62v621q0 80 -26.5 144t-73.5 110.5t-112.5 71t-143.5 24.5 t-142.5 -25.5t-111.5 -73t-73.5 -113t-26.5 -145.5v-614h-62v614q0 80 -26.5 144.5t-74.5 112t-116 73t-147 25.5q-76 -2 -138.5 -29t-107.5 -73t-70.5 -110.5t-25.5 -142.5v-614h-62z" />
<glyph unicode="n" horiz-adv-x="1230" d="M174 0v1012h62l-3 -230q31 68 77 114t99.5 75.5t111 44t112.5 14.5q211 0 323.5 -114.5t112.5 -319.5v-596h-61v594q0 188 -100 284q-97 94 -268 93h-7q-84 0 -155.5 -31t-126 -84t-85 -126t-30.5 -155v-575h-62z" />
<glyph unicode="o" horiz-adv-x="1239" d="M106 504q0 123 41 220t112 164.5t164 103.5t198 36q102 0 195 -37t164 -104.5t112 -164.5t41 -218q0 -123 -42 -219.5t-113 -163t-164 -100t-196 -33.5q-102 0 -194 33.5t-163 100t-113 163t-42 219.5zM168 504q0 -109 37 -194t98.5 -143t143 -89t171.5 -31t172 31 t144.5 89t99.5 143t37 194t-36 194.5t-98.5 146t-144 92.5t-174.5 32q-90 0 -171.5 -32t-143 -92.5t-98.5 -146.5t-37 -194z" />
<glyph unicode="p" d="M174 -496v1508h62v-129l-13 -146q27 74 75 128.5t109.5 90t131 52t135.5 16.5q104 0 197.5 -36t163 -102.5t110.5 -162.5t41 -217q0 -117 -40 -212t-109.5 -164t-162 -105.5t-196.5 -36.5q-70 0 -141.5 18.5t-135 55t-110.5 93t-68 132.5l13 -164v-619h-62zM233 496 q0 -90 28 -171t84 -142.5t140 -98.5t195 -37q92 0 173 32t141.5 90t95 143t34.5 194q0 111 -35.5 195.5t-98 143t-144.5 89.5t-174 31q-115 0 -198 -39t-136 -103.5t-79 -149.5t-26 -177z" />
<glyph unicode="q" d="M106 506q0 121 41 217t111 162.5t163 102.5t197 36q66 0 134.5 -16.5t130 -52t110.5 -90t76 -128.5l-12 146v129h61v-1508h-61v619l12 164q-20 -76 -67.5 -132.5t-111 -93t-135 -55t-141.5 -18.5q-104 0 -196 36.5t-162 105.5t-110 164t-40 212zM168 506q0 -109 35 -194 t95 -143t141 -90t173 -32q111 0 195 37t140.5 98.5t84 142.5t27.5 171q0 92 -25.5 177t-79 149.5t-136.5 103.5t-197 39q-92 0 -174 -31t-144.5 -89.5t-98.5 -143.5t-36 -195z" />
<glyph unicode="r" horiz-adv-x="800" d="M174 0v1012h59v-111l-6 -139q37 117 137.5 187.5t227.5 70.5q47 0 98 -11.5t98 -37.5l-26 -51q-41 23 -85 33t-85 10q-76 0 -140.5 -31t-112.5 -80t-74.5 -113.5t-26.5 -134.5v-604h-64z" />
<glyph unicode="s" horiz-adv-x="1030" d="M88 197l49 34q66 -98 173.5 -141t215.5 -43q49 0 109.5 8t114 33t89 68t35.5 112q0 63 -32.5 101.5t-84.5 62t-118 35.5t-129 25q-74 14 -143.5 29.5t-124 43t-87 73.5t-32.5 120q0 72 32.5 123t88 82.5t127 47t149.5 15.5q111 0 206 -32.5t169 -102.5l-39 -43 q-66 61 -150.5 91t-185.5 30q-66 0 -127 -11.5t-107 -37t-74 -65.5t-28 -97q0 -63 35 -100t86 -57.5t110.5 -31t106.5 -20.5q66 -12 138.5 -26.5t134 -43t101.5 -78t40 -135.5q0 -80 -38 -133t-97.5 -85t-133 -45t-143.5 -13q-68 0 -134 14t-124.5 40t-104.5 64.5t-73 88.5z " />
<glyph unicode="t" horiz-adv-x="772" d="M76 958v54h221v305l61 6v-311h361v-54h-361v-657q0 -55 6.5 -102t28 -82t60.5 -54.5t106 -19.5q39 0 90 15.5t92 35.5l27 -51q-47 -25 -102.5 -41t-102.5 -16q-80 0 -131 21.5t-82 62.5t-42 99t-11 132v657h-221z" />
<glyph unicode="u" horiz-adv-x="1230" d="M162 416v596h61v-594q-1 -188 99 -284q97 -94 269 -93h7q82 0 154.5 30.5t127 84t85 125t30.5 155.5v576h62v-1012h-62l2 229q-31 -68 -77 -113.5t-99 -75.5t-110.5 -44t-112.5 -14q-211 0 -323.5 114.5t-112.5 319.5z" />
<glyph unicode="v" horiz-adv-x="1089" d="M88 1012h70l387 -934l389 934h70l-424 -1012h-70z" />
<glyph unicode="w" horiz-adv-x="1667" d="M94 1012h70l323 -928l332 928h35l328 -928l321 928h70l-361 -1012h-65l-311 883l-314 -883h-65z" />
<glyph unicode="x" horiz-adv-x="950" d="M41 0v4l401 522l-370 484v2h78l325 -430l328 430h76v-2l-371 -484l401 -522v-4h-73l-361 477l-360 -477h-74z" />
<glyph unicode="y" horiz-adv-x="1083" d="M92 1012h68l377 -936l393 936h69l-645 -1508h-67l215 508z" />
<glyph unicode="z" horiz-adv-x="917" d="M61 0v18l684 936h-653v58h752v-19l-686 -934h684v-59h-781z" />
<glyph unicode="{" horiz-adv-x="604" d="M80 586v53q51 0 84 22.5t51 59.5t24.5 83t6.5 93v328q0 172 77.5 224t206.5 19v-51q-47 12 -88 11t-70.5 -20t-47 -63.5t-17.5 -119.5v-328q0 -41 -2 -85t-15.5 -84t-42 -70.5t-79.5 -45.5q51 -12 79.5 -42.5t42 -70.5t15.5 -85t2 -84v-312q0 -76 17.5 -118.5t47 -61 t70.5 -18.5t88 12v-51q-66 -16 -118 -13t-88.5 29.5t-57 80.5t-20.5 140v312q0 45 -6.5 91t-24.5 83t-51 59.5t-84 22.5z" />
<glyph unicode="|" horiz-adv-x="454" d="M197 -258v1696h61v-1696h-61z" />
<glyph unicode="}" horiz-adv-x="604" d="M74 -168q47 -12 88 -12t70.5 18.5t47 61.5t17.5 118v312q0 39 2 84t15.5 85t42 70.5t79.5 42.5q-51 14 -79.5 45t-42 71t-15.5 84t-2 85v328q0 76 -17.5 120t-47 63t-70.5 20.5t-88 -11.5v51q129 33 206.5 -19t77.5 -224v-328q0 -47 6.5 -93t25 -83t50 -59.5t84.5 -22.5 v-53q-53 0 -84.5 -22.5t-50 -59.5t-25 -83t-6.5 -91v-312q0 -86 -20.5 -140t-57 -80.5t-90 -30t-116.5 13.5v51z" />
<glyph unicode="~" horiz-adv-x="1286" d="M162 578q18 57 60 101t99.5 65.5t127 16.5t143.5 -46l168 -92q49 -25 94 -36.5t83 -5t70.5 34t59.5 82.5l55 -26q-53 -123 -149 -146.5t-240 41.5l-174 97q-55 33 -109.5 38t-100.5 -10.5t-82 -51.5t-56 -85z" />
<glyph unicode="&#xa1;" horiz-adv-x="423" d="M152 971q0 27 17 41t38.5 14t39 -14t17.5 -41t-17.5 -40t-39 -13t-38.5 13t-17 40zM180 -410v1166h64v-1166h-64z" />
<glyph unicode="&#xa2;" horiz-adv-x="1118" d="M106 487q0 117 38 209t103.5 158t156 102.5t192.5 42.5v117h61v-117q92 -8 175 -38.5t155 -100.5l-47 -41q-68 66 -147.5 93.5t-167.5 27.5q-94 0 -177 -27.5t-145.5 -84t-98.5 -141.5t-36 -200q0 -117 36 -202.5t98.5 -142t145 -83t177.5 -26.5q180 0 319 133l47 -43 q-72 -70 -156.5 -106.5t-177.5 -41.5v-147h-61v145q-100 6 -189.5 41t-156 99.5t-105.5 158t-39 215.5z" />
<glyph unicode="&#xa3;" horiz-adv-x="1308" d="M121 0v51q88 100 133 183t62.5 156t11.5 136.5t-23 126.5h-184v54h168q-20 74 -40 157.5t-20 188.5q0 104 40 178t106.5 121t153.5 69.5t182 22.5q86 0 168 -16.5t145 -56.5t102 -109.5t39 -174.5h-53q0 92 -38 150.5t-96 91.5t-130 45t-137 12q-88 0 -166 -19 t-135.5 -61t-90 -104.5t-32.5 -148.5q0 -92 20.5 -177t38.5 -169h559v-54h-545q18 -68 23.5 -138.5t-12 -144t-60.5 -151.5t-118 -162h989v-57h-1061z" />
<glyph unicode="&#xa4;" horiz-adv-x="1155" d="M143 266l125 125q-49 57 -73.5 130t-25.5 148.5t22.5 149.5t72.5 133l-121 121l43 43l121 -123q51 41 118 65.5t153 24.5t152.5 -24.5t115.5 -65.5l123 123l43 -43l-121 -121q49 -59 72.5 -131.5t22.5 -148.5t-25.5 -149.5t-73.5 -131.5l125 -125l-43 -43l-127 123 q-47 -39 -112.5 -61.5t-151.5 -22.5q-164 0 -267 84l-125 -123zM233 672q0 -66 20.5 -128.5t63.5 -111.5t108 -78.5t153 -29.5q86 0 150.5 29.5t107.5 78.5t64.5 111.5t21.5 128.5t-21.5 129t-64.5 112.5t-107.5 79t-150.5 29.5q-88 0 -153 -29.5t-108 -79t-63.5 -113 t-20.5 -128.5z" />
<glyph unicode="&#xa5;" horiz-adv-x="1318" d="M63 1434h78l518 -803l517 803h77l-526 -811h293v-54h-328v-137h328v-55h-328v-377h-65v377h-322v55h322v137h-322v54h287z" />
<glyph unicode="&#xa6;" horiz-adv-x="464" d="M197 -178v739h71v-739h-71zM197 700v744h71v-744h-71z" />
<glyph unicode="&#xa7;" horiz-adv-x="1069" d="M121 164l49 37q63 -94 167.5 -136t209.5 -42q45 0 102.5 6t108.5 26.5t86 60.5t35 107q0 55 -33 94t-85 66t-114.5 43t-120.5 25q-68 10 -132 29.5t-115.5 50t-83 76.5t-33.5 108q-2 39 12 81t45 78.5t80 62.5t119 32q-102 18 -177 72.5t-79 160.5q-2 61 25.5 111.5 t78.5 84.5t120 52t149 18q111 0 192.5 -29.5t157.5 -99.5l-37 -41q-70 66 -143.5 90.5t-169.5 26.5q-59 0 -117 -12t-103 -39t-70.5 -67t-23.5 -93q2 -55 33 -93t76 -62.5t99 -37t106 -18.5q68 -6 138 -19t128.5 -43t95.5 -82t37 -138q0 -51 -21.5 -92t-57.5 -71t-83 -48.5 t-100 -24.5q127 -35 197.5 -96.5t70.5 -157.5q0 -80 -37 -130t-94 -77.5t-127 -38t-135 -10.5q-131 0 -248 50.5t-178 148.5zM219 715q2 -45 29.5 -82t72 -62.5t102.5 -39t120 -13.5q61 0 121.5 10.5t107.5 33t76 59.5t29 90q0 63 -32 105t-80 67.5t-106.5 36t-109.5 10.5 q-72 0 -134.5 -11.5t-106.5 -36t-68.5 -65.5t-20.5 -102z" />
<glyph unicode="&#xa8;" horiz-adv-x="903" d="M147 1401q0 29 17.5 43t39 14t40 -14t18.5 -43t-18.5 -43.5t-40 -14.5t-39 14.5t-17.5 43.5zM569 1401q0 29 17.5 43t39 14t40 -14t18.5 -43t-18.5 -43.5t-40 -14.5t-39 14.5t-17.5 43.5z" />
<glyph unicode="&#xa9;" horiz-adv-x="1718" d="M123 711q0 147 48 283t141.5 238.5t230.5 164t315 61.5t315.5 -61.5t231.5 -164t143 -238.5t49 -283t-49 -282.5t-143 -239t-231.5 -165t-315.5 -61.5t-315 60.5t-230.5 164t-141.5 238.5t-48 285zM188 711q0 -141 45.5 -266.5t131.5 -217.5t209.5 -145t283.5 -53t284 53 t210 145t131 217t45 267q0 141 -45 266t-131 217t-210 145.5t-284 53.5t-283.5 -53.5t-209.5 -145.5t-131.5 -217t-45.5 -266zM481 719q0 88 31 161.5t84 126t127 82t158 29.5q78 0 151.5 -29.5t126.5 -84.5l-43 -50q-45 47 -109.5 72t-125.5 25q-68 0 -127.5 -21.5 t-105.5 -64.5t-72.5 -104.5t-26.5 -141.5q0 -76 26.5 -137.5t70.5 -105.5t104.5 -68.5t128.5 -24.5q59 0 122.5 24.5t108.5 69.5l47 -49q-53 -55 -127 -84t-149 -29q-84 0 -158 30t-127 83t-84 127t-31 164z" />
<glyph unicode="&#xaa;" horiz-adv-x="1026" d="M160 1106q0 80 26.5 143.5t72.5 106.5t107.5 66.5t129.5 23.5q78 0 152.5 -37t119.5 -109v136h59v-664h-59v137q-49 -72 -119.5 -107.5t-152.5 -35.5q-68 0 -129.5 22.5t-107.5 66.5t-72.5 107.5t-26.5 143.5zM184 563v66h674v-66h-674zM223 1106q0 -66 21.5 -118 t58.5 -87t87 -53.5t106 -18.5q90 0 150.5 41t91 102.5t30.5 133.5t-30.5 133t-91 102t-150.5 41q-55 0 -105.5 -18t-87.5 -54t-58.5 -87.5t-21.5 -116.5z" />
<glyph unicode="&#xab;" horiz-adv-x="751" d="M111 608l282 449h68l-275 -449l275 -450h-68zM287 608l282 449h66l-275 -449l275 -450h-66z" />
<glyph unicode="&#xac;" horiz-adv-x="1026" d="M176 670v61h686v-360h-61v299h-625z" />
<glyph unicode="&#xad;" horiz-adv-x="1017" d="M156 559v62h706v-62h-706z" />
<glyph unicode="&#xae;" horiz-adv-x="1718" d="M123 711q0 147 48 283t141.5 238.5t230.5 164t315 61.5t315.5 -61.5t231.5 -164t143 -238.5t49 -283t-49 -282.5t-143 -239t-231.5 -165t-315.5 -61.5t-315 60.5t-230.5 164t-141.5 238.5t-48 285zM188 711q0 -141 45.5 -266.5t131.5 -217.5t209.5 -145t283.5 -53t284 53 t210 145t131 217t45 267q0 141 -45 266t-131 217t-210 145.5t-284 53.5t-283.5 -53.5t-209.5 -145.5t-131.5 -217t-45.5 -266zM578 322v790h346q84 0 139 -35t83 -88t28 -114.5t-28 -114.5t-84 -90t-140 -37l276 -303v-8h-80l-270 309h-207v-309h-63zM641 690h274 q61 0 103.5 26.5t64 67.5t22.5 87.5t-18.5 87t-60.5 67.5t-102 27h-283v-363z" />
<glyph unicode="&#xaf;" horiz-adv-x="751" d="M72 1378v60h596v-60h-596z" />
<glyph unicode="&#xb0;" horiz-adv-x="630" d="M124 1302.5q1 49.5 23.5 91.5t65.5 69.5t104 27.5q63 0 105.5 -27.5t64 -69.5t21.5 -91.5t-20.5 -91.5t-62.5 -69.5t-103 -27.5q-68 0 -113 27.5t-65.5 69.5t-19.5 91.5zM179 1301.5q-1 -52.5 33 -95.5t107 -43q68 0 101 43t33 95.5t-34 95.5t-102 43t-102.5 -43 t-35.5 -95.5z" />
<glyph unicode="&#xb1;" horiz-adv-x="1069" d="M164 723v53h344v344h53v-344h342v-53h-342v-352h-53v352h-344zM184 113v53h705v-53h-705z" />
<glyph unicode="&#xb2;" horiz-adv-x="720" d="M92 899v150q0 68 25.5 108.5t65.5 62t87 29.5t88 13q41 4 80 13t69 26.5t48 46t18 71.5q0 80 -58 114t-150 34q-37 0 -74 -6.5t-66.5 -22.5t-47 -47t-17.5 -80h-60q0 63 22.5 105.5t59.5 67t85 33.5t98 9q43 0 90 -9t87 -32.5t65.5 -63.5t25.5 -102q0 -57 -22.5 -95 t-60.5 -61.5t-86 -36t-97 -18.5q-41 -4 -79 -12t-68 -24.5t-48 -46t-18 -78.5v-89h473v-59h-535z" />
<glyph unicode="&#xb3;" horiz-adv-x="702" d="M84 1104h61q-2 -47 21.5 -77t56.5 -47t70 -24.5t61 -7.5q27 0 61 6.5t64.5 24.5t52 49t21.5 80q0 18 -10.5 42t-33 44t-59 33.5t-90.5 13.5h-110v59h102q29 0 60.5 7.5t58.5 23t44 40t17 59.5q0 25 -8 48t-28.5 42.5t-55 32t-88.5 12.5q-31 0 -64.5 -4.5t-62 -18.5 t-48 -41.5t-21.5 -75.5h-62q2 55 23.5 93t57.5 62t81 34t96 10t96.5 -13.5t77 -39t50 -61t18.5 -80.5q0 -53 -33 -96.5t-98 -61.5q84 -18 117.5 -69.5t33.5 -94.5q0 -115 -72.5 -167t-189.5 -52q-51 0 -99 12t-85 38t-60.5 67t-23.5 98z" />
<glyph unicode="&#xb4;" horiz-adv-x="450" d="M72 1192v6l155 238h80l-174 -244h-61z" />
<glyph unicode="&#xb5;" horiz-adv-x="1257" d="M160 -469v1483h59v-598q0 -90 33 -160t86 -116t121.5 -70.5t140.5 -24.5q74 0 143.5 22.5t124 71.5t87 126t32.5 184v565h62v-1014h-58l-2 221q-23 -63 -63.5 -108t-93 -74t-111.5 -41t-121 -12q-55 0 -113.5 14t-109.5 41t-92 66.5t-64 91.5v-668h-61z" />
<glyph unicode="&#xb6;" horiz-adv-x="1566" d="M68 922q2 94 33.5 186t94 163.5t153.5 116t212 44.5h936v-50h-223v-1826h-53v1826h-594v-1826h-58v854q-129 -4 -223 40t-156.5 115.5t-93 164.5t-28.5 192z" />
<glyph unicode="&#xb7;" horiz-adv-x="428" d="M156 602q0 29 18.5 43t40 14t39.5 -14t18 -43t-18 -43t-39.5 -14t-40 14t-18.5 43z" />
<glyph unicode="&#xb8;" horiz-adv-x="563" d="M39 -307l41 35q37 -51 75 -66.5t85 -17.5q47 0 84.5 22.5t52.5 69.5q8 29 2 56.5t-28.5 47t-64.5 27.5t-106 -2l-2 2l35 178h55l-26 -125q61 4 103 -12.5t65.5 -45t29.5 -66.5t-6 -77q-23 -74 -78 -102.5t-116 -30.5q-61 0 -115.5 24.5t-85.5 82.5z" />
<glyph unicode="&#xb9;" horiz-adv-x="460" d="M76 903v55h131v578l-115 -25v56l176 41v-650h140v-55h-332z" />
<glyph unicode="&#xba;" horiz-adv-x="995" d="M166 1106q0 82 26.5 145.5t71.5 106.5t104.5 65.5t127.5 22.5t127 -22.5t105 -65.5t72.5 -106.5t26.5 -145.5q0 -84 -26.5 -147.5t-71.5 -106.5t-105 -64.5t-128 -21.5t-127.5 22.5t-104.5 66.5t-71.5 107.5t-26.5 143.5zM174 565v62h647v-62h-647zM231 1106 q0 -131 74 -205t191 -74t191.5 74t74.5 205q0 133 -75 205.5t-191 72.5q-117 0 -191 -72.5t-74 -205.5z" />
<glyph unicode="&#xbb;" horiz-adv-x="751" d="M117 158l274 450l-274 449h65l283 -449l-283 -450h-65zM291 158l274 450l-274 449h67l283 -449l-283 -450h-67z" />
<glyph unicode="&#xbc;" horiz-adv-x="1423" d="M104 735v56h132v577l-115 -25v56l176 41v-649h139v-56h-332zM279 -4l753 1442h68l-754 -1442h-67zM807 225l369 498h88v-481h84v-60h-84v-182h-62v182h-389zM889 242h313v424z" />
<glyph unicode="&#xbd;" horiz-adv-x="1558" d="M104 735v56h132v577l-115 -25v56l176 41v-649h139v-56h-332zM279 -4l753 1442h68l-754 -1442h-67zM920 0v150q0 68 25.5 108.5t65.5 62t87 29.5t88 12t80 13.5t68.5 27t48 46t18.5 71.5q0 80 -58.5 114t-150.5 34q-37 0 -74 -6.5t-66.5 -22.5t-47 -47t-17.5 -80h-59 q0 63 22.5 105t59.5 67t85 34t97 9q43 0 90 -9t87 -32.5t65.5 -63.5t25.5 -102q0 -57 -22.5 -95t-60.5 -61.5t-86 -36t-97 -18.5q-41 -4 -79 -12t-67.5 -24.5t-48 -46t-18.5 -79.5v-88h473v-59h-534z" />
<glyph unicode="&#xbe;" horiz-adv-x="1527" d="M96 946h62q-2 -47 20.5 -76.5t55 -46t68.5 -23.5t60 -7q27 0 61 6t64.5 23.5t51 48t20.5 79.5q0 18 -10 41t-32.5 43.5t-59.5 33.5t-88 13h-109v58h100q29 0 61 7t57.5 22.5t43 39t17.5 58.5q0 25 -8.5 48t-29 41.5t-55 31t-86.5 12.5q-31 0 -64.5 -4t-61 -17.5t-46 -41 t-20.5 -74.5h-62q2 55 24 92t56.5 60.5t79.5 33.5t94 10q51 0 95.5 -13t76 -38t50 -60.5t18.5 -80.5q0 -53 -32.5 -95.5t-98.5 -60.5q43 -8 71.5 -26.5t46 -41t24.5 -47t7 -45.5q0 -113 -71.5 -165t-186.5 -52q-51 0 -98 12.5t-84 38t-59.5 66.5t-22.5 96zM389 -4l776 1448 h68l-776 -1448h-68zM909 225l369 498h88v-481h84v-60h-84v-182h-61v182h-390zM991 242h314v424z" />
<glyph unicode="&#xbf;" horiz-adv-x="1181" d="M78 2q2 166 77.5 259t245.5 134q76 25 123 49.5t72 66.5t33 107.5t8 169.5h63q0 -115 -11 -188.5t-42 -122.5t-87 -82t-144 -61q-68 -20 -120 -42t-87 -57.5t-53.5 -91t-18.5 -141.5q0 -111 46 -180.5t117 -108.5t158 -53t167 -14q76 0 151.5 14t136 53t99.5 107.5 t39 177.5h63q0 -117 -41 -197t-109.5 -129t-156.5 -69.5t-182 -20.5q-96 0 -193.5 18.5t-175.5 66.5t-127 129t-51 206zM598 993q0 31 18.5 45.5t41 14.5t41 -14.5t18.5 -45.5t-18.5 -45t-41 -14t-41 14.5t-18.5 44.5z" />
<glyph unicode="&#xc0;" horiz-adv-x="1486" d="M66 0l643 1434h77l644 -1434h-78l-166 373h-879l-164 -373h-77zM332 436h827l-411 936zM539 1772h79l156 -238v-6h-61z" />
<glyph unicode="&#xc1;" horiz-adv-x="1495" d="M66 0l643 1434h77l644 -1434h-78l-166 373h-879l-164 -373h-77zM332 436h827l-411 936zM713 1532v6l155 238h80l-174 -244h-61z" />
<glyph unicode="&#xc2;" horiz-adv-x="1495" d="M66 0l643 1434h77l644 -1434h-78l-166 373h-879l-164 -373h-77zM332 436h827l-411 936zM446 1524v6l269 254h63l266 -254v-6h-65l-234 215l-231 -215h-68z" />
<glyph unicode="&#xc3;" horiz-adv-x="1495" d="M66 0l643 1434h77l644 -1434h-78l-166 373h-879l-164 -373h-77zM332 436h827l-411 936zM510 1599q20 78 75.5 102.5t137.5 -20.5l86 -47q55 -29 90 -17.5t53 73.5l43 -17q-20 -80 -75.5 -106.5t-137.5 18.5l-86 47q-53 29 -90 19.5t-53 -68.5z" />
<glyph unicode="&#xc4;" horiz-adv-x="1495" d="M66 0l643 1434h77l644 -1434h-78l-166 373h-879l-164 -373h-77zM332 436h827l-411 936zM479 1610q0 29 17.5 43t39 14t40 -14.5t18.5 -42.5q0 -29 -18.5 -43.5t-40 -14.5t-39 14.5t-17.5 43.5zM901 1610q0 29 17.5 43t39 14t40 -14.5t18.5 -42.5q0 -29 -18.5 -43.5 t-40 -14.5t-39 14.5t-17.5 43.5z" />
<glyph unicode="&#xc5;" horiz-adv-x="1495" d="M66 0l643 1434h77l644 -1434h-78l-166 373h-879l-164 -373h-77zM332 436h827l-411 936zM555 1565q0 66 28.5 106.5t71.5 61t93.5 19.5t93.5 -22.5t71.5 -62.5t28.5 -100q0 -76 -40 -120t-95 -61l-119 3q-55 16 -94 60t-39 116zM608 1565q0 -43 20.5 -73t51.5 -44 t67.5 -14t67.5 14t51.5 44t20.5 75q0 43 -20.5 72.5t-51.5 45t-67.5 16.5t-67.5 -14.5t-51.5 -45t-20.5 -76.5z" />
<glyph unicode="&#xc6;" horiz-adv-x="1863" d="M-23 0l906 1434h837v-60h-737v-618h690v-62h-690v-628h770v-66h-833v559h-517l-350 -559h-76zM436 621l484 -3l2 762z" />
<glyph unicode="&#xc7;" horiz-adv-x="1472" d="M119 711q-2 143 43 278t137 239.5t229.5 166t319.5 61.5q141 0 275 -52t241 -163l-45 -43q-98 100 -220 147.5t-251 47.5q-164 0 -288 -55.5t-208 -147.5t-126 -216t-42 -261q2 -135 46 -256t128 -212t207 -143.5t283 -52.5q129 0 250 48t219 147l47 -41 q-106 -111 -241.5 -164t-274.5 -53q-176 0 -311.5 58t-228.5 157.5t-141 231.5t-48 278zM631 -356l45 39q33 -47 70.5 -63.5t84.5 -16.5q47 -2 90.5 18.5t55.5 63.5q8 29 1 57.5t-31.5 49t-68.5 29.5t-108 -1l37 168h53l-22 -113q61 4 103 -13.5t65.5 -48t30.5 -69.5t-3 -76 q-20 -70 -81.5 -99.5t-123.5 -29.5q-59 0 -114.5 25.5t-83.5 79.5z" />
<glyph unicode="&#xc8;" horiz-adv-x="1335" d="M213 0v1434h969v-64h-903v-614h860v-64h-860v-629h933v-63h-999zM537 1786h79l156 -238v-6h-61z" />
<glyph unicode="&#xc9;" horiz-adv-x="1335" d="M213 0v1434h969v-64h-903v-614h860v-64h-860v-629h933v-63h-999zM649 1544v6l156 238h80l-174 -244h-62z" />
<glyph unicode="&#xca;" horiz-adv-x="1335" d="M213 0v1434h969v-64h-903v-614h860v-64h-860v-629h933v-63h-999zM399 1546v8l285 269h68l284 -269v-8h-71l-248 230l-246 -230h-72z" />
<glyph unicode="&#xcb;" horiz-adv-x="1335" d="M213 0v1434h969v-64h-903v-614h860v-64h-860v-629h933v-63h-999zM465 1642q0 29 17.5 43.5t39 14.5t40 -14.5t18.5 -43.5t-18.5 -43t-40 -14t-39 14t-17.5 43zM887 1642q0 29 17.5 43.5t39 14.5t39.5 -14.5t18 -43.5t-18 -43t-39.5 -14t-39 14t-17.5 43z" />
<glyph unicode="&#xcc;" horiz-adv-x="491" d="M47 1776h80l156 -238v-6h-62zM213 0v1434h66v-1434h-66z" />
<glyph unicode="&#xcd;" horiz-adv-x="491" d="M195 1546v6l155 238h80l-174 -244h-61zM213 0v1434h66v-1434h-66z" />
<glyph unicode="&#xce;" horiz-adv-x="491" d="M-8 1532v8l227 275h55l230 -275v-8h-58l-200 233l-197 -233h-57zM213 0v1434h66v-1434h-66z" />
<glyph unicode="&#xcf;" horiz-adv-x="491" d="M53 1628q0 29 17.5 43.5t39 14.5t40 -14.5t18.5 -43.5t-18.5 -43t-40 -14t-39 14t-17.5 43zM213 0v1434h66v-1434h-66zM309 1628q0 29 17.5 43.5t39 14.5t40 -14.5t18.5 -43.5t-18.5 -43t-40 -14t-39 14t-17.5 43z" />
<glyph unicode="&#xd0;" horiz-adv-x="1540" d="M66 700v58h550v-58h-550zM225 0v1434h465q182 0 317.5 -58.5t226.5 -156t137 -223.5t50 -263q2 -141 -41 -273t-133 -234.5t-229 -164t-328 -61.5h-465zM291 63h399q168 0 295 56.5t210 149.5t123 214t38 250q-2 123 -45 238.5t-126 204t-206 141.5t-289 53h-399v-1307z " />
<glyph unicode="&#xd1;" horiz-adv-x="1515" d="M213 0v1434h6l1024 -1262l-6 332v930h66v-1434l-1031 1268l7 -338v-930h-66zM526 1618q20 78 75.5 102.5t137.5 -20.5l86 -47q55 -29 90 -17.5t54 72.5l43 -16q-20 -80 -75.5 -106.5t-137.5 18.5l-86 47q-53 29 -90 19.5t-54 -68.5z" />
<glyph unicode="&#xd2;" horiz-adv-x="1673" d="M117 721q0 131 42 262t129 235.5t222.5 169t323.5 64.5q180 0 316 -61.5t226 -164t135 -235.5t45 -274t-46 -274.5t-136 -237t-225 -164.5t-313 -61t-312.5 62t-225.5 165.5t-136 238t-45 275.5zM182 719q0 -127 42 -248t124 -216t204 -153.5t284 -58.5q160 0 282.5 57.5 t205.5 150.5t125 215t42 251q0 133 -42 255t-125 214t-206 147.5t-284 55.5q-164 0 -287 -57.5t-204 -152t-121 -215t-40 -245.5zM657 1810h80l156 -237v-6h-62z" />
<glyph unicode="&#xd3;" horiz-adv-x="1673" d="M117 721q0 131 42 262t129 235.5t222.5 169t323.5 64.5q180 0 316 -61.5t226 -164t135 -235.5t45 -274t-46 -274.5t-136 -237t-225 -164.5t-313 -61t-312.5 62t-225.5 165.5t-136 238t-45 275.5zM182 719q0 -127 42 -248t124 -216t204 -153.5t284 -58.5q160 0 282.5 57.5 t205.5 150.5t125 215t42 251q0 133 -42 255t-125 214t-206 147.5t-284 55.5q-164 0 -287 -57.5t-204 -152t-121 -215t-40 -245.5zM803 1565v6l155 237h80l-174 -243h-61z" />
<glyph unicode="&#xd4;" horiz-adv-x="1673" d="M117 721q0 131 42 262t129 235.5t222.5 169t323.5 64.5q180 0 316 -61.5t226 -164t135 -235.5t45 -274t-46 -274.5t-136 -237t-225 -164.5t-313 -61t-312.5 62t-225.5 165.5t-136 238t-45 275.5zM182 719q0 -127 42 -248t124 -216t204 -153.5t284 -58.5q160 0 282.5 57.5 t205.5 150.5t125 215t42 251q0 133 -42 255t-125 214t-206 147.5t-284 55.5q-164 0 -287 -57.5t-204 -152t-121 -215t-40 -245.5zM518 1561v8l285 268h67l285 -268v-8h-72l-247 229l-246 -229h-72z" />
<glyph unicode="&#xd5;" horiz-adv-x="1673" d="M117 721q0 131 42 262t129 235.5t222.5 169t323.5 64.5q180 0 316 -61.5t226 -164t135 -235.5t45 -274t-46 -274.5t-136 -237t-225 -164.5t-313 -61t-312.5 62t-225.5 165.5t-136 238t-45 275.5zM182 719q0 -127 42 -248t124 -216t204 -153.5t284 -58.5q160 0 282.5 57.5 t205.5 150.5t125 215t42 251q0 133 -42 255t-125 214t-206 147.5t-284 55.5q-164 0 -287 -57.5t-204 -152t-121 -215t-40 -245.5zM598 1649q23 80 80 105.5t141 -21.5l90 -50q57 -29 93 -17.5t55 77.5l45 -19q-20 -82 -77.5 -109.5t-143.5 19.5l-88 47q-55 31 -94.5 22 t-55.5 -71z" />
<glyph unicode="&#xd6;" horiz-adv-x="1673" d="M117 721q0 131 42 262t129 235.5t222.5 169t323.5 64.5q180 0 316 -61.5t226 -164t135 -235.5t45 -274t-46 -274.5t-136 -237t-225 -164.5t-313 -61t-312.5 62t-225.5 165.5t-136 238t-45 275.5zM182 719q0 -127 42 -248t124 -216t204 -153.5t284 -58.5q160 0 282.5 57.5 t205.5 150.5t125 215t42 251q0 133 -42 255t-125 214t-206 147.5t-284 55.5q-164 0 -287 -57.5t-204 -152t-121 -215t-40 -245.5zM565 1649q0 29 17.5 43t39 14t40 -14.5t18.5 -42.5q0 -29 -18.5 -43.5t-40 -14.5t-39 14.5t-17.5 43.5zM987 1649q0 29 17.5 43t39 14 t40 -14.5t18.5 -42.5q0 -29 -18.5 -43.5t-40 -14.5t-39 14.5t-17.5 43.5z" />
<glyph unicode="&#xd7;" horiz-adv-x="929" d="M154 389l272 279l-266 264l39 41l268 -266l264 262l41 -41l-266 -260l274 -269l-41 -43l-274 269l-272 -277z" />
<glyph unicode="&#xd8;" horiz-adv-x="1673" d="M117 721q0 131 42 262t129 235.5t222.5 169t323.5 64.5q180 0 316 -61.5t226 -164t135 -235.5t45 -274t-46 -274.5t-136 -237t-225 -164.5t-313 -61t-312.5 62t-225.5 165.5t-136 238t-45 275.5zM182 719q0 -127 42 -248t124 -216t204 -153.5t284 -58.5q160 0 282.5 57.5 t205.5 150.5t125 215t42 251q0 133 -42 255t-125 214t-206 147.5t-284 55.5q-164 0 -287 -57.5t-204 -152t-121 -215t-40 -245.5zM309 -166l1037 1718h73l-1038 -1718h-72z" />
<glyph unicode="&#xd9;" horiz-adv-x="1449" d="M197 526v908h65v-908q0 -125 41 -216t107.5 -149.5t148.5 -86t164 -27.5t165 27.5t149.5 86t108.5 148.5t42 217v908h65v-908q0 -141 -47 -242.5t-122.5 -168t-171 -99t-189.5 -32.5q-96 0 -190.5 32.5t-169 100t-120.5 169t-46 240.5zM553 1798h80l155 -237v-7h-61z" />
<glyph unicode="&#xda;" horiz-adv-x="1449" d="M197 526v908h65v-908q0 -125 41 -216t107.5 -149.5t148.5 -86t164 -27.5t165 27.5t149.5 86t108.5 148.5t42 217v908h65v-908q0 -141 -47 -242.5t-122.5 -168t-171 -99t-189.5 -32.5q-96 0 -190.5 32.5t-169 100t-120.5 169t-46 240.5zM670 1544v6l155 238h80l-174 -244 h-61z" />
<glyph unicode="&#xdb;" horiz-adv-x="1449" d="M197 526v908h65v-908q0 -125 41 -216t107.5 -149.5t148.5 -86t164 -27.5t165 27.5t149.5 86t108.5 148.5t42 217v908h65v-908q0 -141 -47 -242.5t-122.5 -168t-171 -99t-189.5 -32.5q-96 0 -190.5 32.5t-169 100t-120.5 169t-46 240.5zM424 1534v8l272 256h64l272 -256 v-8h-67l-238 219l-233 -219h-70z" />
<glyph unicode="&#xdc;" horiz-adv-x="1449" d="M197 526v908h65v-908q0 -125 41 -216t107.5 -149.5t148.5 -86t164 -27.5t165 27.5t149.5 86t108.5 148.5t42 217v908h65v-908q0 -141 -47 -242.5t-122.5 -168t-171 -99t-189.5 -32.5q-96 0 -190.5 32.5t-169 100t-120.5 169t-46 240.5zM469 1624q0 29 17.5 43t39 14 t40 -14t18.5 -43t-18.5 -43t-40 -14t-39 14t-17.5 43zM891 1624q0 29 17.5 43t39 14t40 -14t18.5 -43t-18.5 -43t-40 -14t-39 14t-17.5 43z" />
<glyph unicode="&#xdd;" horiz-adv-x="1331" d="M70 1434h77l519 -803l516 803h78l-562 -865v-569h-65v569zM610 1548v6l156 238h80l-174 -244h-62z" />
<glyph unicode="&#xde;" horiz-adv-x="1370" d="M213 0v1432h63v-258h555q150 0 251.5 -69t150.5 -171.5t49 -221t-49 -221t-150.5 -171t-251.5 -68.5h-555v-252h-63zM276 311h555q127 0 212 59.5t128 148.5t43 192.5t-43 192.5t-128 148.5t-212 59.5h-555v-801z" />
<glyph unicode="&#xdf;" horiz-adv-x="1228" d="M174 0v1059q0 102 32 177t87 124t131 72.5t162 23.5q88 0 164.5 -19.5t133 -62.5t89.5 -111.5t33 -166.5q0 -117 -62.5 -201t-169.5 -113q166 -35 258 -140t92 -280q0 -104 -34.5 -180t-93 -124t-135.5 -70.5t-158.5 -24.5t-163.5 15.5t-154 50.5v63q109 -59 228.5 -71.5 t220 21.5t166 112.5t65.5 203.5q0 123 -44 200t-113.5 119t-156.5 56.5t-173 14.5h-195v49h186q57 0 125 12t124 45t94 91.5t38 150.5q0 96 -34.5 156.5t-88 93t-117 44t-124.5 11.5q-102 0 -169 -26.5t-108 -73t-58.5 -109t-21.5 -135.5v-1057h-55z" />
<glyph unicode="&#xe0;" d="M106 506q0 119 40 215t110 163.5t162 103.5t196 36q70 0 141.5 -18.5t135 -55.5t111 -93t67.5 -132l-12 164v123h61v-1012h-61v129l12 145q-27 -74 -76 -128t-110.5 -90t-130 -52t-134.5 -16q-104 0 -197 35.5t-163 102.5t-111 163t-41 217zM168 506q0 -109 36 -194 t98.5 -144t144 -90t174.5 -31q115 0 197.5 39t136 103.5t79 149.5t25.5 177q0 88 -27.5 170t-84 143.5t-140.5 98.5t-195 37q-92 0 -173 -32t-141 -90.5t-95 -144.5t-35 -192zM465 1436h80l155 -238v-6h-61z" />
<glyph unicode="&#xe1;" d="M106 506q0 119 40 215t110 163.5t162 103.5t196 36q70 0 141.5 -18.5t135 -55.5t111 -93t67.5 -132l-12 164v123h61v-1012h-61v129l12 145q-27 -74 -76 -128t-110.5 -90t-130 -52t-134.5 -16q-104 0 -197 35.5t-163 102.5t-111 163t-41 217zM168 506q0 -109 36 -194 t98.5 -144t144 -90t174.5 -31q115 0 197.5 39t136 103.5t79 149.5t25.5 177q0 88 -27.5 170t-84 143.5t-140.5 98.5t-195 37q-92 0 -173 -32t-141 -90.5t-95 -144.5t-35 -192zM588 1192v6l155 238h80l-174 -244h-61z" />
<glyph unicode="&#xe2;" d="M106 506q0 119 40 215t110 163.5t162 103.5t196 36q70 0 141.5 -18.5t135 -55.5t111 -93t67.5 -132l-12 164v123h61v-1012h-61v129l12 145q-27 -74 -76 -128t-110.5 -90t-130 -52t-134.5 -16q-104 0 -197 35.5t-163 102.5t-111 163t-41 217zM168 506q0 -109 36 -194 t98.5 -144t144 -90t174.5 -31q115 0 197.5 39t136 103.5t79 149.5t25.5 177q0 88 -27.5 170t-84 143.5t-140.5 98.5t-195 37q-92 0 -173 -32t-141 -90.5t-95 -144.5t-35 -192zM336 1163v8l274 259h66l272 -259v-8h-67l-240 221l-235 -221h-70z" />
<glyph unicode="&#xe3;" d="M106 506q0 119 40 215t110 163.5t162 103.5t196 36q70 0 141.5 -18.5t135 -55.5t111 -93t67.5 -132l-12 164v123h61v-1012h-61v129l12 145q-27 -74 -76 -128t-110.5 -90t-130 -52t-134.5 -16q-104 0 -197 35.5t-163 102.5t-111 163t-41 217zM168 506q0 -109 36 -194 t98.5 -144t144 -90t174.5 -31q115 0 197.5 39t136 103.5t79 149.5t25.5 177q0 88 -27.5 170t-84 143.5t-140.5 98.5t-195 37q-92 0 -173 -32t-141 -90.5t-95 -144.5t-35 -192zM412 1305q20 78 75.5 102.5t137.5 -21.5l86 -47q55 -29 90 -17.5t53 73.5l43 -17 q-20 -80 -75.5 -106.5t-137.5 18.5l-86 47q-53 29 -90 20t-53 -69z" />
<glyph unicode="&#xe4;" d="M106 506q0 119 40 215t110 163.5t162 103.5t196 36q70 0 141.5 -18.5t135 -55.5t111 -93t67.5 -132l-12 164v123h61v-1012h-61v129l12 145q-27 -74 -76 -128t-110.5 -90t-130 -52t-134.5 -16q-104 0 -197 35.5t-163 102.5t-111 163t-41 217zM168 506q0 -109 36 -194 t98.5 -144t144 -90t174.5 -31q115 0 197.5 39t136 103.5t79 149.5t25.5 177q0 88 -27.5 170t-84 143.5t-140.5 98.5t-195 37q-92 0 -173 -32t-141 -90.5t-95 -144.5t-35 -192zM393 1366q0 29 17.5 43t39 14t40 -14t18.5 -43t-18.5 -43t-40 -14t-39 14t-17.5 43zM815 1366 q0 29 17.5 43t39 14t40 -14t18.5 -43t-18.5 -43t-40 -14t-39 14t-17.5 43z" />
<glyph unicode="&#xe5;" d="M106 506q0 119 40 215t110 163.5t162 103.5t196 36q70 0 141.5 -18.5t135 -55.5t111 -93t67.5 -132l-12 164v123h61v-1012h-61v129l12 145q-27 -74 -76 -128t-110.5 -90t-130 -52t-134.5 -16q-104 0 -197 35.5t-163 102.5t-111 163t-41 217zM168 506q0 -109 36 -194 t98.5 -144t144 -90t174.5 -31q115 0 197.5 39t136 103.5t79 149.5t25.5 177q0 88 -27.5 170t-84 143.5t-140.5 98.5t-195 37q-92 0 -173 -32t-141 -90.5t-95 -144.5t-35 -192zM451 1325q0 63 29.5 103t72.5 59.5t94 18.5t94 -21.5t72 -60.5t29 -97q0 -63 -29 -103t-72 -59.5 t-94 -19.5t-94 19.5t-72.5 59.5t-29.5 101zM504 1325q0 -66 44 -96.5t98 -30.5t98 31.5t44 97.5q0 63 -44 97t-98 35t-98 -32.5t-44 -101.5z" />
<glyph unicode="&#xe6;" horiz-adv-x="2150" d="M106 506q0 119 40 215t110 163.5t162 103.5t196 36q70 0 141.5 -18.5t135 -56.5t111 -94t67.5 -132l-10 166v123h57v-254q59 125 174 195.5t262 70.5q102 0 199.5 -30.5t169.5 -97.5t111 -170t24 -251h-940q8 -109 47 -188.5t99.5 -132t135.5 -78t156 -25.5 q53 0 110.5 11.5t110 34t96.5 55t75 73.5l47 -35q-37 -49 -86 -86.5t-107.5 -62.5t-121 -37t-124.5 -12q-141 0 -258.5 66.5t-179.5 193.5v-252h-57v129l8 141q-27 -74 -75 -127t-109.5 -88t-130 -51t-134.5 -16q-104 0 -197 35.5t-163 102.5t-111 163t-41 217zM168 506 q0 -109 36 -194t98.5 -144t144 -90t174.5 -31q113 0 195.5 37t137 99.5t81 145.5t26.5 175q-2 98 -31 183t-85 146.5t-139 96.5t-194 35q-92 0 -173 -32t-141 -90.5t-95 -144.5t-35 -192zM1116 532h885q6 211 -117 322t-332 111q-90 0 -165.5 -29t-134 -84t-94.5 -135 t-42 -185z" />
<glyph unicode="&#xe7;" horiz-adv-x="1085" d="M106 506q0 117 40 212t110 161.5t164 103.5t205 37q98 0 195.5 -39t172.5 -113l-41 -39q-66 68 -152.5 100t-176.5 32q-92 0 -174 -30t-144.5 -87.5t-99.5 -142.5t-37 -195q0 -109 37 -194t99.5 -143t145 -88t175.5 -30q86 0 171 33t150 98l41 -41q-74 -74 -169 -111.5 t-193 -37.5q-106 0 -200.5 37t-165.5 104.5t-112 161.5t-41 211zM403 -313l39 32q35 -47 72 -62t84 -17q45 0 83 20.5t52 65.5q8 27 2 53t-28.5 44.5t-63.5 27t-102 -2.5l-2 2l26 146h58l-23 -96q59 4 100 -11.5t64.5 -43t30 -62.5t-6.5 -72q-23 -70 -77 -96.5t-113 -28.5 q-59 0 -112.5 23.5t-82.5 77.5z" />
<glyph unicode="&#xe8;" horiz-adv-x="1206" d="M106 504q0 117 38 212t105.5 163.5t160 106.5t198.5 38q102 0 199.5 -30.5t169.5 -97.5t110.5 -170t24.5 -251h-944q8 -109 48 -188.5t100.5 -132t136 -78t157.5 -25.5q53 0 110.5 11.5t110 34t96.5 55t74 73.5l48 -35q-37 -49 -86.5 -86.5t-107.5 -62.5t-120.5 -37 t-124.5 -12q-100 0 -191 33.5t-161 99t-111 161t-41 218.5zM168 532h889q6 211 -117 322t-332 111q-90 0 -166.5 -29t-135 -84t-95.5 -135t-43 -185zM453 1436h79l156 -238v-6h-61z" />
<glyph unicode="&#xe9;" horiz-adv-x="1206" d="M106 504q0 117 38 212t105.5 163.5t160 106.5t198.5 38q102 0 199.5 -30.5t169.5 -97.5t110.5 -170t24.5 -251h-944q8 -109 48 -188.5t100.5 -132t136 -78t157.5 -25.5q53 0 110.5 11.5t110 34t96.5 55t74 73.5l48 -35q-37 -49 -86.5 -86.5t-107.5 -62.5t-120.5 -37 t-124.5 -12q-100 0 -191 33.5t-161 99t-111 161t-41 218.5zM168 532h889q6 211 -117 322t-332 111q-90 0 -166.5 -29t-135 -84t-95.5 -135t-43 -185zM573 1192v6l156 238h80l-174 -244h-62z" />
<glyph unicode="&#xea;" horiz-adv-x="1206" d="M106 504q0 117 38 212t105.5 163.5t160 106.5t198.5 38q102 0 199.5 -30.5t169.5 -97.5t110.5 -170t24.5 -251h-944q8 -109 48 -188.5t100.5 -132t136 -78t157.5 -25.5q53 0 110.5 11.5t110 34t96.5 55t74 73.5l48 -35q-37 -49 -86.5 -86.5t-107.5 -62.5t-120.5 -37 t-124.5 -12q-100 0 -191 33.5t-161 99t-111 161t-41 218.5zM168 532h889q6 211 -117 322t-332 111q-90 0 -166.5 -29t-135 -84t-95.5 -135t-43 -185zM328 1169v7l268 254h63l267 -254v-7h-66l-233 215l-232 -215h-67z" />
<glyph unicode="&#xeb;" horiz-adv-x="1206" d="M106 504q0 117 38 212t105.5 163.5t160 106.5t198.5 38q102 0 199.5 -30.5t169.5 -97.5t110.5 -170t24.5 -251h-944q8 -109 48 -188.5t100.5 -132t136 -78t157.5 -25.5q53 0 110.5 11.5t110 34t96.5 55t74 73.5l48 -35q-37 -49 -86.5 -86.5t-107.5 -62.5t-120.5 -37 t-124.5 -12q-100 0 -191 33.5t-161 99t-111 161t-41 218.5zM168 532h889q6 211 -117 322t-332 111q-90 0 -166.5 -29t-135 -84t-95.5 -135t-43 -185zM377 1348q0 29 16.5 42t37 13t38.5 -13.5t18 -41.5q0 -27 -18 -41.5t-38.5 -14.5t-37 14.5t-16.5 41.5zM780 1348 q0 29 17.5 42t38 13t38 -13.5t17.5 -41.5q0 -27 -17.5 -41.5t-38 -14.5t-38 14.5t-17.5 41.5z" />
<glyph unicode="&#xec;" horiz-adv-x="407" d="M35 1432h71l140 -234v-6h-56zM174 0v1026h59v-1026h-59z" />
<glyph unicode="&#xed;" horiz-adv-x="407" d="M162 1192v6l137 234h68l-150 -240h-55zM174 0v1026h59v-1026h-59z" />
<glyph unicode="&#xee;" horiz-adv-x="407" d="M-10 1159v8l196 267h45l197 -267v-8h-61l-156 221l-166 -221h-55zM174 0v1026h59v-1026h-59z" />
<glyph unicode="&#xef;" horiz-adv-x="407" d="M37 1401q0 25 16.5 38t34.5 13t34.5 -13.5t16.5 -37.5q0 -25 -16.5 -38t-34.5 -13t-34.5 13t-16.5 38zM174 0v1026h59v-1026h-59zM291 1401q0 25 16.5 38t34.5 13t34.5 -13.5t16.5 -37.5q0 -25 -16.5 -38t-34.5 -13t-34.5 13t-16.5 38z" />
<glyph unicode="&#xf0;" horiz-adv-x="1259" d="M106 492q0 96 32 189t96.5 167t163 119t229.5 45q147 0 264 -70t172 -180q-47 150 -140.5 273.5t-215.5 209.5l-86 -131l-43 29l84 131q-104 66 -213 102l24 56q115 -45 219 -109l88 135l45 -28l-88 -138q193 -131 299.5 -321.5t110.5 -448.5q2 -119 -34 -218 t-103.5 -170t-166 -110.5t-218.5 -39.5q-131 0 -228.5 43t-162 114.5t-96.5 162.5t-32 188zM168 494q0 -90 28.5 -171t86 -143.5t142.5 -99.5t200 -37t200.5 39t144 102.5t87 144.5t28.5 165t-28.5 166.5t-87 147t-144.5 104.5t-200 40q-115 0 -200 -39t-142.5 -103.5 t-86 -147t-28.5 -168.5z" />
<glyph unicode="&#xf1;" horiz-adv-x="1230" d="M174 0v1012h62l-3 -230q31 68 77 114t99.5 75.5t111 44t112.5 14.5q211 0 323.5 -114.5t112.5 -319.5v-596h-61v594q0 188 -99.5 283.5t-275.5 93.5q-84 0 -155.5 -31t-126 -84t-85 -126t-30.5 -155v-575h-62zM395 1335q20 78 75.5 102.5t137.5 -20.5l86 -47 q55 -29 90 -17.5t54 72.5l43 -16q-20 -80 -75.5 -106.5t-137.5 18.5l-86 47q-53 29 -90 19.5t-54 -68.5z" />
<glyph unicode="&#xf2;" horiz-adv-x="1239" d="M106 504q0 123 41 220t112 164.5t164 103.5t198 36q102 0 195 -37t164 -104.5t112 -164.5t41 -218q0 -123 -42 -219.5t-113 -163t-164 -100t-196 -33.5q-102 0 -194 33.5t-163 100t-113 163t-42 219.5zM168 504q0 -109 37 -194t98.5 -143t143 -89t171.5 -31t172 31 t144.5 89t99.5 143t37 194t-36 194.5t-98.5 146t-144 92.5t-174.5 32q-90 0 -171.5 -32t-143 -92.5t-98.5 -146.5t-37 -194zM442 1436h80l156 -238v-6h-62z" />
<glyph unicode="&#xf3;" horiz-adv-x="1239" d="M106 504q0 123 41 220t112 164.5t164 103.5t198 36q102 0 195 -37t164 -104.5t112 -164.5t41 -218q0 -123 -42 -219.5t-113 -163t-164 -100t-196 -33.5q-102 0 -194 33.5t-163 100t-113 163t-42 219.5zM168 504q0 -109 37 -194t98.5 -143t143 -89t171.5 -31t172 31 t144.5 89t99.5 143t37 194t-36 194.5t-98.5 146t-144 92.5t-174.5 32q-90 0 -171.5 -32t-143 -92.5t-98.5 -146.5t-37 -194zM561 1192v6l156 238h80l-174 -244h-62z" />
<glyph unicode="&#xf4;" horiz-adv-x="1239" d="M106 504q0 123 41 220t112 164.5t164 103.5t198 36q102 0 195 -37t164 -104.5t112 -164.5t41 -218q0 -123 -42 -219.5t-113 -163t-164 -100t-196 -33.5q-102 0 -194 33.5t-163 100t-113 163t-42 219.5zM168 504q0 -109 37 -194t98.5 -143t143 -89t171.5 -31t172 31 t144.5 89t99.5 143t37 194t-36 194.5t-98.5 146t-144 92.5t-174.5 32q-90 0 -171.5 -32t-143 -92.5t-98.5 -146.5t-37 -194zM338 1165v9l254 256h61l252 -256v-9h-63l-221 219l-218 -219h-65z" />
<glyph unicode="&#xf5;" horiz-adv-x="1239" d="M106 504q0 123 41 220t112 164.5t164 103.5t198 36q102 0 195 -37t164 -104.5t112 -164.5t41 -218q0 -123 -42 -219.5t-113 -163t-164 -100t-196 -33.5q-102 0 -194 33.5t-163 100t-113 163t-42 219.5zM168 504q0 -109 37 -194t98.5 -143t143 -89t171.5 -31t172 31 t144.5 89t99.5 143t37 194t-36 194.5t-98.5 146t-144 92.5t-174.5 32q-90 0 -171.5 -32t-143 -92.5t-98.5 -146.5t-37 -194zM385 1311q20 78 75.5 102.5t137.5 -20.5l86 -47q55 -29 90 -18t53 73l43 -17q-20 -80 -75.5 -106.5t-137.5 18.5l-86 47q-53 29 -90 20t-53 -69z " />
<glyph unicode="&#xf6;" horiz-adv-x="1239" d="M106 504q0 123 41 220t112 164.5t164 103.5t198 36q102 0 195 -37t164 -104.5t112 -164.5t41 -218q0 -123 -42 -219.5t-113 -163t-164 -100t-196 -33.5q-102 0 -194 33.5t-163 100t-113 163t-42 219.5zM168 504q0 -109 37 -194t98.5 -143t143 -89t171.5 -31t172 31 t144.5 89t99.5 143t37 194t-36 194.5t-98.5 146t-144 92.5t-174.5 32q-90 0 -171.5 -32t-143 -92.5t-98.5 -146.5t-37 -194zM391 1376q0 25 15.5 38t35 13t36 -13t16.5 -38q0 -27 -16.5 -39t-36 -12t-35 12t-15.5 39zM766 1376q0 25 15.5 38t35 13t35.5 -13t16 -38 q0 -27 -16 -39t-35.5 -12t-35 12t-15.5 39z" />
<glyph unicode="&#xf7;" horiz-adv-x="1089" d="M164 659v64h762v-64h-762zM481 389q0 31 19.5 45.5t42 14.5t42 -14.5t19.5 -45.5t-19.5 -45t-42 -14t-42 14t-19.5 45zM481 979q0 31 19.5 45t42 14t42 -14t19.5 -45t-19.5 -45t-42 -14t-42 14t-19.5 45z" />
<glyph unicode="&#xf8;" horiz-adv-x="1236" d="M106 504q0 123 41 220t112 164.5t164 103.5t198 36q102 0 195 -37t164 -104.5t112 -164.5t41 -218q0 -123 -42 -219.5t-113 -163t-164 -100t-196 -33.5q-102 0 -194 33.5t-163 100t-113 163t-42 219.5zM168 504q0 -109 37 -194t98.5 -143t143 -89t171.5 -31t172 31 t144.5 89t99.5 143t37 194t-36 194.5t-98.5 146t-144 92.5t-174.5 32q-90 0 -171.5 -32t-143 -92.5t-98.5 -146.5t-37 -194zM227 -104l721 1202h72l-723 -1202h-70z" />
<glyph unicode="&#xf9;" horiz-adv-x="1230" d="M162 416v596h61v-594q0 -188 99.5 -283.5t275.5 -93.5q82 0 154.5 30.5t127 84t85 125t30.5 155.5v576h62v-1012h-62l2 229q-31 -68 -77 -113.5t-99 -75.5t-110.5 -44t-112.5 -14q-211 0 -323.5 114.5t-112.5 319.5zM451 1436h79l156 -238v-6h-61z" />
<glyph unicode="&#xfa;" horiz-adv-x="1230" d="M162 416v596h61v-594q0 -188 99.5 -283.5t275.5 -93.5q82 0 154.5 30.5t127 84t85 125t30.5 155.5v576h62v-1012h-62l2 229q-31 -68 -77 -113.5t-99 -75.5t-110.5 -44t-112.5 -14q-211 0 -323.5 114.5t-112.5 319.5zM549 1192v6l156 238h79l-174 -244h-61z" />
<glyph unicode="&#xfb;" horiz-adv-x="1230" d="M162 416v596h61v-594q0 -188 99.5 -283.5t275.5 -93.5q82 0 154.5 30.5t127 84t85 125t30.5 155.5v576h62v-1012h-62l2 229q-31 -68 -77 -113.5t-99 -75.5t-110.5 -44t-112.5 -14q-211 0 -323.5 114.5t-112.5 319.5zM309 1176v8l271 258h65l270 -258v-8h-67l-238 221 l-233 -221h-68z" />
<glyph unicode="&#xfc;" horiz-adv-x="1230" d="M162 416v596h61v-594q0 -188 99.5 -283.5t275.5 -93.5q82 0 154.5 30.5t127 84t85 125t30.5 155.5v576h62v-1012h-62l2 229q-31 -68 -77 -113.5t-99 -75.5t-110.5 -44t-112.5 -14q-211 0 -323.5 114.5t-112.5 319.5zM375 1378q0 27 16.5 40.5t35.5 13.5t36.5 -13.5 t17.5 -40.5t-17.5 -40t-36.5 -13t-35.5 13t-16.5 40zM768 1378q0 27 16.5 40.5t36 13.5t36.5 -13.5t17 -40.5t-17 -40t-36.5 -13t-36 13t-16.5 40z" />
<glyph unicode="&#xfd;" horiz-adv-x="1083" d="M92 1012h68l377 -936l393 936h69l-645 -1508h-67l215 508zM465 1190v6l156 238h79l-174 -244h-61z" />
<glyph unicode="&#xfe;" horiz-adv-x="1294" d="M174 -422v1854h59v-684q61 125 182.5 200.5t284.5 75.5q100 -4 189.5 -41t155 -102.5t103.5 -159.5t38 -215q0 -127 -41 -224.5t-110.5 -164t-163 -100t-199.5 -33.5q-141 0 -257 69.5t-182 204.5v-680h-59zM236 504q0 -102 33.5 -186.5t93 -145.5t140.5 -95t175 -34 q92 0 174 28.5t141.5 87t94 144.5t34.5 203t-34.5 203t-94 143t-141.5 85t-174 28q-96 0 -177 -34t-139.5 -95.5t-92 -146.5t-33.5 -185z" />
<glyph unicode="&#xff;" horiz-adv-x="1083" d="M92 1012h68l377 -936l393 936h69l-645 -1508h-67l215 508zM285 1368q0 25 16 37t35.5 12t37 -12t17.5 -37q0 -27 -17.5 -39t-37 -12t-35.5 12t-16 39zM676 1368q0 25 16.5 37t36 12t36.5 -12t17 -37q0 -27 -17 -39t-36.5 -12t-36 12t-16.5 39z" />
<glyph unicode="&#x152;" horiz-adv-x="1914" d="M121 717q0 147 45 279t134 231.5t224 157t318 57.5h57.5t65.5 -8h796v-56h-745v-610h704v-59h-704v-654h792v-55h-847q-59 -6 -119 -6q-178 0 -313.5 58.5t-226.5 156.5t-136 229t-45 279zM186 717q2 -141 44 -263t123 -211t203 -139.5t284 -50.5q29 0 59.5 1t61.5 3 v1325q-31 2 -61 3t-58 1q-164 0 -287 -52t-205 -142t-123 -212t-41 -263z" />
<glyph unicode="&#x153;" horiz-adv-x="2164" d="M106 504q0 123 41 220t112 164.5t164 103.5t198 36q82 0 156.5 -23.5t138 -67.5t110.5 -107.5t72 -143.5q49 156 174 247t295 91q102 0 199.5 -30.5t169 -97.5t110.5 -170t25 -251h-945q8 -109 48 -188.5t100.5 -132t136.5 -78t158 -25.5q53 0 110.5 11.5t109.5 34t96 55 t75 73.5l47 -35q-37 -49 -86 -86.5t-107.5 -62.5t-121 -37t-123.5 -12q-80 0 -154 21.5t-135 63.5t-108.5 102.5t-73.5 139.5q-53 -162 -184.5 -246.5t-295.5 -84.5q-102 0 -194 33.5t-163 100t-113 163t-42 219.5zM168 504q0 -109 37 -194t98.5 -143t143 -89t171.5 -31 t172 31t144.5 89t99.5 143t37 194t-36 194.5t-98.5 146t-144 92.5t-174.5 32q-90 0 -171.5 -32t-143 -92.5t-98.5 -146.5t-37 -194zM1126 532h889q6 211 -116.5 322t-331.5 111q-90 0 -167 -29t-135.5 -84t-95 -135t-43.5 -185z" />
<glyph unicode="&#x178;" horiz-adv-x="1331" d="M70 1434h77l519 -803l516 803h78l-562 -865v-569h-65v569zM399 1628q0 29 17.5 43.5t39 14.5t40 -14.5t18.5 -43.5t-18.5 -43t-40 -14t-39 14t-17.5 43zM821 1628q0 29 17.5 43.5t39 14.5t40 -14.5t18.5 -43.5t-18.5 -43t-40 -14t-39 14t-17.5 43z" />
<glyph unicode="&#x2c6;" horiz-adv-x="860" d="M86 1153v8l285 269h67l285 -269v-8h-72l-248 229l-245 -229h-72z" />
<glyph unicode="&#x2dc;" horiz-adv-x="628" d="M61 1335q20 78 76 102.5t137 -20.5l86 -47q55 -29 90 -17.5t54 72.5l43 -16q-20 -80 -75.5 -106.5t-137.5 18.5l-86 47q-53 29 -90 19.5t-54 -68.5z" />
<glyph unicode="&#x2000;" horiz-adv-x="918" />
<glyph unicode="&#x2001;" horiz-adv-x="1837" />
<glyph unicode="&#x2002;" horiz-adv-x="918" />
<glyph unicode="&#x2003;" horiz-adv-x="1837" />
<glyph unicode="&#x2004;" horiz-adv-x="612" />
<glyph unicode="&#x2005;" horiz-adv-x="459" />
<glyph unicode="&#x2006;" horiz-adv-x="306" />
<glyph unicode="&#x2007;" horiz-adv-x="306" />
<glyph unicode="&#x2008;" horiz-adv-x="229" />
<glyph unicode="&#x2009;" horiz-adv-x="367" />
<glyph unicode="&#x200a;" horiz-adv-x="102" />
<glyph unicode="&#x2010;" horiz-adv-x="1017" d="M156 559v62h706v-62h-706z" />
<glyph unicode="&#x2011;" horiz-adv-x="1017" d="M156 559v62h706v-62h-706z" />
<glyph unicode="&#x2012;" horiz-adv-x="1017" d="M156 559v62h706v-62h-706z" />
<glyph unicode="&#x2013;" horiz-adv-x="1212" d="M156 559v62h901v-62h-901z" />
<glyph unicode="&#x2014;" horiz-adv-x="1437" d="M156 559v62h1126v-62h-1126z" />
<glyph unicode="&#x2018;" horiz-adv-x="395" d="M127 1133l102 303h60l-90 -303h-72z" />
<glyph unicode="&#x2019;" horiz-adv-x="393" d="M129 1133l90 303h72l-103 -303h-59z" />
<glyph unicode="&#x201a;" horiz-adv-x="413" d="M88 -215l90 317h72l-109 -317h-53z" />
<glyph unicode="&#x201c;" horiz-adv-x="612" d="M127 1133l102 303h60l-90 -303h-72zM344 1133l102 303h60l-90 -303h-72z" />
<glyph unicode="&#x201d;" horiz-adv-x="610" d="M129 1133l90 303h72l-103 -303h-59zM346 1133l90 303h72l-102 -303h-60z" />
<glyph unicode="&#x201e;" horiz-adv-x="620" d="M88 -215l90 317h72l-109 -317h-53zM295 -215l90 317h72l-109 -317h-53z" />
<glyph unicode="&#x2022;" horiz-adv-x="751" d="M203 588q0 78 50 125t126 47q72 0 121 -47t49 -125t-49 -124t-121 -46q-76 0 -126 46t-50 124z" />
<glyph unicode="&#x2026;" horiz-adv-x="983" d="M154 45q0 27 17 41t38.5 14t39 -14t17.5 -41q0 -29 -17.5 -43t-39 -14t-38.5 14t-17 43zM438 45q0 27 17.5 41t39 14t39 -14t17.5 -41q0 -29 -17.5 -43t-39 -14t-39 14t-17.5 43zM717 45q0 27 17.5 41t39 14t38.5 -14t17 -41q0 -29 -17 -43t-38.5 -14t-39 14t-17.5 43z " />
<glyph unicode="&#x202f;" horiz-adv-x="367" />
<glyph unicode="&#x2039;" horiz-adv-x="577" d="M111 614l282 447h68l-275 -447l275 -450h-68z" />
<glyph unicode="&#x203a;" horiz-adv-x="573" d="M117 154l274 448l-274 449h67l281 -449l-281 -448h-67z" />
<glyph unicode="&#x205f;" horiz-adv-x="459" />
<glyph unicode="&#x20ac;" horiz-adv-x="1282" d="M90 553v61h141q-2 23 -3 46.5t-1 48.5v47t4 47h-141v61h148q18 119 71 225.5t142.5 186.5t215.5 127t291 47q90 0 172 -20l-10 -60q-80 18 -162 19q-147 0 -260.5 -40t-194.5 -111t-130 -167t-68 -207h596l-16 -61h-588q-4 -23 -4 -46.5v-45.5q0 -51 6 -97h571l-18 -61 h-545q20 -109 69.5 -201t128.5 -159.5t189.5 -105.5t255.5 -38q59 0 112.5 10.5t108.5 30.5l15 -59q-59 -23 -116.5 -33t-119.5 -10q-160 0 -283.5 44t-211.5 119.5t-141.5 179t-73.5 222.5h-150z" />
<glyph unicode="&#x2122;" horiz-adv-x="1599" d="M127 1380v54h543v-54h-246v-514h-57v514h-240zM811 866v568h51l254 -334l262 334h41v-568h-61v449l-238 -295h-12l-238 305v-459h-59z" />
<glyph unicode="&#x25fc;" horiz-adv-x="1013" d="M0 0v1014h1014v-1014h-1014z" />
<glyph unicode="&#xfb01;" horiz-adv-x="1077" d="M72 950v56h211v96q0 68 12 129t44 106t87 72t141 27q41 0 77 -10.5t67 -26.5l-25 -56q-31 16 -60.5 23.5t-68.5 7.5q-104 0 -158.5 -65.5t-54.5 -206.5v-96h324v-56h-324v-950h-61v950h-211zM815 1354q0 29 17.5 43t39.5 14q23 0 41.5 -14.5t18.5 -42.5 q0 -29 -18.5 -44.5t-41.5 -15.5t-40 15.5t-17 44.5zM840 0v1016h63v-1016h-63z" />
<glyph unicode="&#xfb02;" horiz-adv-x="1062" d="M72 950v56h211v96q0 68 12 129t44 106t87 72t141 27q41 0 74 -10.5t66 -30.5l-29 -49q-31 16 -56.5 23t-64.5 7q-104 0 -158.5 -66.5t-54.5 -207.5v-96h320v-56h-320v-950h-61v950h-211zM809 0v1434h63v-1434h-63z" />
</font>
</defs>
</svg>
